<?xml version="1.0" encoding="UTF-8" standalone="no"?>
<!DOCTYPE svg PUBLIC "-//W3C//DTD SVG 1.1//EN" "http://www.w3.org/Graphics/SVG/1.1/DTD/svg11.dtd">
<svg width="100%" height="100%" viewBox="0 0 662 468" version="1.1" xmlns="http://www.w3.org/2000/svg" xmlns:xlink="http://www.w3.org/1999/xlink" xml:space="preserve" xmlns:serif="http://www.serif.com/" style="fill-rule:evenodd;clip-rule:evenodd;stroke-linejoin:round;stroke-miterlimit:2;">
    <g transform="matrix(1,0,0,1,-101.864,-530.221)">
        <g transform="matrix(0.946103,0,0,0.946103,-1555.98,-1043.7)">
            <path d="M1928.29,1988.88L1947.1,1988.88C1950.63,1988.8 1953.74,1989.61 1956.41,1991.3C1958.18,1992.32 1959.55,1993.71 1960.54,1995.48C1961.48,1997.45 1961.95,1999.87 1961.95,2002.73C1961.95,2006.19 1960.79,2009.34 1958.47,2012.17C1956.04,2015.07 1952.4,2016.57 1947.57,2016.65L1928.29,2016.65L1928.29,1988.88ZM1915.26,2062.51L1928.29,2062.51L1928.29,2028.97L1948.1,2028.97C1956.94,2028.81 1963.66,2025.98 1968.26,2020.48C1972.74,2015.25 1974.98,2009.45 1974.98,2003.09C1974.98,1998.37 1974.1,1994.28 1972.33,1990.83C1970.64,1987.25 1968.44,1984.5 1965.72,1982.57C1962.5,1980.02 1959.32,1978.33 1956.17,1977.5C1953.03,1976.87 1949.77,1976.56 1946.39,1976.56L1915.26,1976.56L1915.26,2062.51Z" style="fill:rgb(30,65,73);fill-rule:nonzero;stroke:rgb(30,65,73);stroke-width:3.08px;"/>
            <path d="M1989.33,2047.65C1989.33,2053.04 1990.86,2056.87 1993.93,2059.15C1996.84,2061.39 2000.53,2062.51 2005.01,2062.51L2010.5,2062.51L2010.5,2050.9L2006.25,2050.9C2003.18,2050.9 2001.65,2049.5 2001.65,2046.71L2001.65,1976.56L1989.33,1976.56L1989.33,2047.65Z" style="fill:rgb(30,65,73);fill-rule:nonzero;stroke:rgb(30,65,73);stroke-width:3.08px;"/>
            <path d="M2056.21,2062.51L2068.53,2062.51L2068.53,2020.71C2068.45,2013.25 2066.11,2007.98 2061.51,2004.91C2056.92,2001.93 2050.76,2000.47 2043.06,2000.55C2033.94,2000.39 2027.05,2003.38 2022.37,2009.51L2032.04,2016.88C2033.1,2015.11 2034.55,2013.86 2036.4,2013.11C2038.17,2012.48 2040.59,2012.17 2043.65,2012.17C2052.1,2012.01 2056.29,2014.62 2056.21,2020.01L2056.21,2026.43L2039.17,2026.43C2032.65,2026.51 2027.69,2028.28 2024.32,2031.74C2020.94,2035.12 2019.25,2039.38 2019.25,2044.53C2019.25,2049.91 2021.19,2054.34 2025.08,2057.8C2028.78,2061.33 2034.04,2063.14 2040.88,2063.22C2045.05,2063.22 2048.31,2062.71 2050.67,2061.68C2053.06,2060.7 2054.83,2059.17 2055.97,2057.09L2056.21,2057.09L2056.21,2062.51ZM2056.21,2040.99C2056.21,2045.59 2055.25,2048.54 2053.32,2049.84C2051.2,2051.13 2047.56,2051.74 2042.41,2051.66C2038.33,2051.66 2035.4,2050.86 2033.63,2049.25C2031.78,2047.79 2030.86,2046.02 2030.86,2043.94C2030.78,2039.18 2034.32,2036.73 2041.47,2036.57L2056.21,2036.57L2056.21,2040.99Z" style="fill:rgb(30,65,73);fill-rule:nonzero;stroke:rgb(30,65,73);stroke-width:3.08px;"/>
            <path d="M2089.9,2043.82L2081.29,2052.25C2089.27,2059.56 2098.25,2063.22 2108.23,2063.22C2115.58,2063.14 2121.61,2061.45 2126.33,2058.15C2131.08,2054.93 2133.5,2050.35 2133.58,2044.41C2133.58,2039.34 2132.26,2035.16 2129.63,2031.86C2126.8,2028.48 2122.2,2026.55 2115.84,2026.08L2105.7,2025.31C2102.71,2025 2100.62,2024.27 2099.45,2023.13C2098.15,2022.11 2097.54,2020.91 2097.62,2019.54C2097.62,2017.37 2098.42,2015.61 2100.04,2014.23C2101.57,2012.85 2104.26,2012.17 2108.11,2012.17C2111.49,2012.17 2114.48,2012.66 2117.07,2013.64C2119.71,2014.74 2122.2,2016.13 2124.56,2017.83L2132.16,2008.92C2129.18,2006.33 2125.8,2004.27 2122.03,2002.73C2120.06,2002.03 2117.96,2001.48 2115.72,2001.08C2113.48,2000.73 2110.94,2000.55 2108.11,2000.55C2101.59,2000.55 2096.2,2002.12 2091.96,2005.27C2087.6,2008.41 2085.38,2013.13 2085.3,2019.42C2085.38,2024.64 2087.07,2028.71 2090.37,2031.62C2093.59,2034.61 2097.78,2036.34 2102.92,2036.81L2113.77,2037.75C2116.05,2037.83 2117.88,2038.32 2119.25,2039.23C2120.59,2040.09 2121.26,2041.62 2121.26,2043.82C2121.26,2046.3 2120.14,2048.22 2117.9,2049.6C2115.66,2050.98 2112.77,2051.66 2109.23,2051.66C2101.33,2051.66 2094.89,2049.05 2089.9,2043.82Z" style="fill:rgb(30,65,73);fill-rule:nonzero;stroke:rgb(30,65,73);stroke-width:3.08px;"/>
            <path d="M2150.35,2001.32L2144.22,2001.32L2144.22,2010.69L2150.35,2010.69L2150.35,2047.42C2150.35,2052.25 2151.76,2055.95 2154.59,2058.5C2157.34,2061.17 2160.88,2062.51 2165.2,2062.51L2171.63,2062.51L2171.63,2050.9L2167.03,2050.9C2164.04,2050.98 2162.59,2049.46 2162.67,2046.36L2162.67,2010.69L2171.63,2010.69L2171.63,2001.32L2162.67,2001.32L2162.67,1982.69L2150.35,1982.69L2150.35,2001.32Z" style="fill:rgb(30,65,73);fill-rule:nonzero;stroke:rgb(30,65,73);stroke-width:3.08px;"/>
            <path d="M2187.51,2001.32L2181.38,2001.32L2181.38,2010.69L2187.51,2010.69L2187.51,2047.42C2187.51,2052.25 2188.93,2055.95 2191.76,2058.5C2194.51,2061.17 2198.05,2062.51 2202.37,2062.51L2208.8,2062.51L2208.8,2050.9L2204.2,2050.9C2201.21,2050.98 2199.76,2049.46 2199.83,2046.36L2199.83,2010.69L2208.8,2010.69L2208.8,2001.32L2199.83,2001.32L2199.83,1982.69L2187.51,1982.69L2187.51,2001.32Z" style="fill:rgb(30,65,73);fill-rule:nonzero;stroke:rgb(30,65,73);stroke-width:3.08px;"/>
            <path d="M2224.33,2062.51L2236.65,2062.51L2236.65,2001.32L2224.33,2001.32L2224.33,2062.51ZM2224.33,1988.88L2236.65,1988.88L2236.65,1976.56L2224.33,1976.56L2224.33,1988.88Z" style="fill:rgb(30,65,73);fill-rule:nonzero;stroke:rgb(30,65,73);stroke-width:3.08px;"/>
            <path d="M2292.5,2044.53C2289.39,2048.7 2285.25,2050.82 2280.06,2050.9C2269.61,2051.09 2264.3,2044.79 2264.14,2031.97C2264.3,2019.08 2269.61,2012.72 2280.06,2012.87C2285.25,2013.03 2289.39,2015.17 2292.5,2019.3L2301.58,2011.22C2298.91,2008 2295.76,2005.43 2292.14,2003.5C2288.53,2001.61 2284.34,2000.63 2279.59,2000.55C2272.36,2000.47 2266.01,2002.89 2260.55,2007.8C2254.89,2012.8 2251.98,2020.85 2251.82,2031.97C2251.98,2042.98 2254.89,2050.94 2260.55,2055.85C2266.01,2060.76 2272.36,2063.22 2279.59,2063.22C2284.34,2063.14 2288.53,2062.1 2292.14,2060.09C2295.76,2058.17 2298.91,2055.67 2301.58,2052.61L2292.5,2044.53Z" style="fill:rgb(30,65,73);fill-rule:nonzero;stroke:rgb(30,65,73);stroke-width:3.08px;"/>
            <path d="M1753.06,2086.89L1760.21,2086.89L1765.39,2130.87L1771.56,2101.77L1779.22,2101.77L1785.46,2130.94L1790.65,2086.89L1797.8,2086.89L1789.7,2141.06L1782.77,2141.06L1775.41,2108.88L1768.08,2141.06L1761.15,2141.06L1753.06,2086.89Z" style="fill:rgb(30,65,73);fill-rule:nonzero;stroke:rgb(30,65,73);stroke-width:1.54px;"/>
            <path d="M1840.37,2119.08L1840.37,2122.34L1811.45,2122.34L1811.45,2122.56C1811.45,2126.99 1812.61,2130.41 1814.92,2132.83C1817.23,2135.24 1820.49,2136.45 1824.69,2136.45C1826.82,2136.45 1829.05,2136.12 1831.37,2135.44C1833.69,2134.76 1836.17,2133.73 1838.81,2132.36L1838.81,2138.99C1836.27,2140.03 1833.82,2140.82 1831.46,2141.34C1829.1,2141.86 1826.82,2142.12 1824.62,2142.12C1818.31,2142.12 1813.38,2140.22 1809.82,2136.44C1806.26,2132.65 1804.49,2127.43 1804.49,2120.78C1804.49,2114.3 1806.23,2109.12 1809.71,2105.25C1813.19,2101.38 1817.84,2099.45 1823.64,2099.45C1828.82,2099.45 1832.9,2101.2 1835.89,2104.71C1838.88,2108.22 1840.37,2113.01 1840.37,2119.08ZM1833.69,2117.12C1833.6,2113.2 1832.67,2110.22 1830.92,2108.17C1829.16,2106.13 1826.64,2105.11 1823.35,2105.11C1820.14,2105.11 1817.49,2106.17 1815.41,2108.3C1813.33,2110.43 1812.09,2113.38 1811.71,2117.15L1833.69,2117.12Z" style="fill:rgb(30,65,73);fill-rule:nonzero;stroke:rgb(30,65,73);stroke-width:1.54px;"/>
            <path d="M1880.29,2120.78C1880.29,2115.61 1879.47,2111.7 1877.83,2109.06C1876.18,2106.43 1873.75,2105.11 1870.53,2105.11C1867.29,2105.11 1864.84,2106.43 1863.17,2109.08C1861.5,2111.73 1860.67,2115.63 1860.67,2120.78C1860.67,2125.91 1861.5,2129.8 1863.17,2132.46C1864.84,2135.12 1867.29,2136.45 1870.53,2136.45C1873.75,2136.45 1876.18,2135.14 1877.83,2132.5C1879.47,2129.86 1880.29,2125.96 1880.29,2120.78ZM1860.67,2105.62C1861.73,2103.63 1863.2,2102.11 1865.07,2101.04C1866.95,2099.98 1869.12,2099.45 1871.59,2099.45C1876.47,2099.45 1880.32,2101.33 1883.12,2105.09C1885.93,2108.85 1887.33,2114.03 1887.33,2120.64C1887.33,2127.34 1885.92,2132.59 1883.11,2136.4C1880.29,2140.21 1876.42,2142.12 1871.51,2142.12C1869.1,2142.12 1866.96,2141.59 1865.11,2140.54C1863.26,2139.48 1861.78,2137.95 1860.67,2135.95L1860.67,2141.06L1853.99,2141.06L1853.99,2084.61L1860.67,2084.61L1860.67,2105.62Z" style="fill:rgb(30,65,73);fill-rule:nonzero;stroke:rgb(30,65,73);stroke-width:1.54px;"/>
            <path d="M1954.3,2115.19L1954.3,2135.04L1962.98,2135.04C1967.23,2135.04 1970.27,2134.3 1972.08,2132.81C1973.89,2131.32 1974.8,2128.87 1974.8,2125.46C1974.8,2121.93 1973.85,2119.34 1971.94,2117.68C1970.03,2116.02 1967.04,2115.19 1962.98,2115.19L1954.3,2115.19ZM1954.3,2092.92L1954.3,2109.24L1962.83,2109.24C1966.36,2109.24 1968.92,2108.57 1970.5,2107.21C1972.09,2105.86 1972.88,2103.67 1972.88,2100.64C1972.88,2097.91 1972.1,2095.94 1970.54,2094.73C1968.98,2093.52 1966.41,2092.92 1962.83,2092.92L1954.3,2092.92ZM1946.94,2086.89L1962.98,2086.89C1968.51,2086.89 1972.78,2088.09 1975.78,2090.49C1978.78,2092.88 1980.28,2096.27 1980.28,2100.64C1980.28,2103.96 1979.49,2106.57 1977.9,2108.48C1976.32,2110.39 1973.94,2111.59 1970.78,2112.07C1974.33,2112.61 1977.12,2114.12 1979.14,2116.63C1981.16,2119.13 1982.17,2122.32 1982.17,2126.19C1982.17,2131.1 1980.56,2134.8 1977.34,2137.31C1974.12,2139.81 1969.34,2141.06 1962.98,2141.06L1946.94,2141.06L1946.94,2086.89Z" style="fill:rgb(30,65,73);fill-rule:nonzero;stroke:rgb(30,65,73);stroke-width:1.54px;"/>
            <path d="M2010.23,2105.11C2006.84,2105.11 2004.28,2106.43 2002.54,2109.06C2000.8,2111.7 1999.92,2115.61 1999.92,2120.78C1999.92,2125.93 2000.8,2129.83 2002.54,2132.48C2004.28,2135.13 2006.84,2136.45 2010.23,2136.45C2013.64,2136.45 2016.22,2135.13 2017.96,2132.48C2019.7,2129.83 2020.57,2125.93 2020.57,2120.78C2020.57,2115.61 2019.7,2111.7 2017.96,2109.06C2016.22,2106.43 2013.64,2105.11 2010.23,2105.11ZM2010.23,2099.45C2015.87,2099.45 2020.18,2101.27 2023.16,2104.93C2026.15,2108.58 2027.64,2113.86 2027.64,2120.78C2027.64,2127.72 2026.16,2133.01 2023.18,2136.65C2020.21,2140.29 2015.89,2142.12 2010.23,2142.12C2004.59,2142.12 2000.29,2140.29 1997.31,2136.65C1994.34,2133.01 1992.85,2127.72 1992.85,2120.78C1992.85,2113.86 1994.34,2108.58 1997.31,2104.93C2000.29,2101.27 2004.59,2099.45 2010.23,2099.45Z" style="fill:rgb(30,65,73);fill-rule:nonzero;stroke:rgb(30,65,73);stroke-width:1.54px;"/>
            <path d="M2044.13,2100.43L2061.22,2100.43L2061.22,2135.87L2074.46,2135.87L2074.46,2141.06L2041.3,2141.06L2041.3,2135.87L2054.55,2135.87L2054.55,2105.62L2044.13,2105.62L2044.13,2100.43ZM2054.55,2084.61L2061.22,2084.61L2061.22,2093.06L2054.55,2093.06L2054.55,2084.61Z" style="fill:rgb(30,65,73);fill-rule:nonzero;stroke:rgb(30,65,73);stroke-width:1.54px;"/>
            <path d="M2104.99,2126.33C2104.99,2129.33 2105.54,2131.59 2106.64,2133.12C2107.74,2134.64 2109.37,2135.4 2111.52,2135.4L2119.32,2135.4L2119.32,2141.06L2110.87,2141.06C2106.88,2141.06 2103.79,2139.78 2101.6,2137.22C2099.41,2134.65 2098.32,2131.03 2098.32,2126.33L2098.32,2089.43L2087.61,2089.43L2087.61,2084.21L2104.99,2084.21L2104.99,2126.33Z" style="fill:rgb(30,65,73);fill-rule:nonzero;stroke:rgb(30,65,73);stroke-width:1.54px;"/>
            <path d="M2169.12,2119.08L2169.12,2122.34L2140.2,2122.34L2140.2,2122.56C2140.2,2126.99 2141.36,2130.41 2143.66,2132.83C2145.97,2135.24 2149.23,2136.45 2153.44,2136.45C2155.57,2136.45 2157.8,2136.12 2160.12,2135.44C2162.44,2134.76 2164.92,2133.73 2167.56,2132.36L2167.56,2138.99C2165.02,2140.03 2162.57,2140.82 2160.21,2141.34C2157.85,2141.86 2155.57,2142.12 2153.37,2142.12C2147.06,2142.12 2142.12,2140.22 2138.57,2136.44C2135.01,2132.65 2133.23,2127.43 2133.23,2120.78C2133.23,2114.3 2134.98,2109.12 2138.46,2105.25C2141.94,2101.38 2146.59,2099.45 2152.39,2099.45C2157.57,2099.45 2161.65,2101.2 2164.64,2104.71C2167.62,2108.22 2169.12,2113.01 2169.12,2119.08ZM2162.44,2117.12C2162.34,2113.2 2161.42,2110.22 2159.66,2108.17C2157.91,2106.13 2155.39,2105.11 2152.1,2105.11C2148.88,2105.11 2146.24,2106.17 2144.16,2108.3C2142.07,2110.43 2140.84,2113.38 2140.45,2117.15L2162.44,2117.12Z" style="fill:rgb(30,65,73);fill-rule:nonzero;stroke:rgb(30,65,73);stroke-width:1.54px;"/>
            <path d="M2217.64,2108.81C2216.21,2107.7 2214.76,2106.89 2213.29,2106.38C2211.81,2105.87 2210.19,2105.62 2208.43,2105.62C2204.26,2105.62 2201.08,2106.92 2198.88,2109.53C2196.68,2112.15 2195.58,2115.92 2195.58,2120.85L2195.58,2141.06L2188.87,2141.06L2188.87,2100.43L2195.58,2100.43L2195.58,2108.37C2196.69,2105.49 2198.41,2103.29 2200.72,2101.75C2203.03,2100.22 2205.76,2099.45 2208.93,2099.45C2210.58,2099.45 2212.11,2099.65 2213.54,2100.07C2214.97,2100.48 2216.34,2101.12 2217.64,2101.99L2217.64,2108.81Z" style="fill:rgb(30,65,73);fill-rule:nonzero;stroke:rgb(30,65,73);stroke-width:1.54px;"/>
            <path d="M2236.3,2135.95L2236.3,2156.52L2229.59,2156.52L2229.59,2100.43L2236.3,2100.43L2236.3,2105.62C2237.42,2103.61 2238.9,2102.08 2240.75,2101.03C2242.6,2099.97 2244.74,2099.45 2247.15,2099.45C2252.06,2099.45 2255.91,2101.35 2258.71,2105.14C2261.5,2108.94 2262.9,2114.2 2262.9,2120.93C2262.9,2127.53 2261.5,2132.71 2258.69,2136.47C2255.89,2140.23 2252.04,2142.12 2247.15,2142.12C2244.69,2142.12 2242.53,2141.59 2240.68,2140.54C2238.83,2139.48 2237.37,2137.95 2236.3,2135.95ZM2255.9,2120.78C2255.9,2115.61 2255.08,2111.7 2253.45,2109.06C2251.82,2106.43 2249.39,2105.11 2246.17,2105.11C2242.93,2105.11 2240.48,2106.43 2238.81,2109.08C2237.14,2111.73 2236.3,2115.63 2236.3,2120.78C2236.3,2125.91 2237.14,2129.8 2238.81,2132.46C2240.48,2135.12 2242.93,2136.45 2246.17,2136.45C2249.39,2136.45 2251.82,2135.14 2253.45,2132.5C2255.08,2129.86 2255.9,2125.96 2255.9,2120.78Z" style="fill:rgb(30,65,73);fill-rule:nonzero;stroke:rgb(30,65,73);stroke-width:1.54px;"/>
            <path d="M2292.85,2126.33C2292.85,2129.33 2293.4,2131.59 2294.5,2133.12C2295.6,2134.64 2297.22,2135.4 2299.38,2135.4L2307.18,2135.4L2307.18,2141.06L2298.72,2141.06C2294.73,2141.06 2291.64,2139.78 2289.45,2137.22C2287.27,2134.65 2286.17,2131.03 2286.17,2126.33L2286.17,2089.43L2275.47,2089.43L2275.47,2084.21L2292.85,2084.21L2292.85,2126.33Z" style="fill:rgb(30,65,73);fill-rule:nonzero;stroke:rgb(30,65,73);stroke-width:1.54px;"/>
            <path d="M2348.34,2120.64L2339.88,2120.64C2335.99,2120.64 2333.06,2121.32 2331.09,2122.69C2329.12,2124.05 2328.13,2126.09 2328.13,2128.8C2328.13,2131.24 2328.87,2133.14 2330.34,2134.5C2331.82,2135.85 2333.86,2136.53 2336.47,2136.53C2340.15,2136.53 2343.04,2135.25 2345.14,2132.7C2347.25,2130.15 2348.31,2126.62 2348.34,2122.12L2348.34,2120.64ZM2355.05,2117.88L2355.05,2141.06L2348.34,2141.06L2348.34,2135.04C2346.91,2137.46 2345.12,2139.24 2342.95,2140.39C2340.78,2141.54 2338.16,2142.12 2335.06,2142.12C2330.92,2142.12 2327.62,2140.95 2325.15,2138.61C2322.69,2136.28 2321.45,2133.15 2321.45,2129.24C2321.45,2124.71 2322.97,2121.28 2326.01,2118.93C2329.04,2116.59 2333.5,2115.41 2339.38,2115.41L2348.34,2115.41L2348.34,2114.36C2348.31,2111.12 2347.49,2108.77 2345.87,2107.3C2344.25,2105.84 2341.66,2105.11 2338.11,2105.11C2335.83,2105.11 2333.53,2105.43 2331.21,2106.09C2328.89,2106.74 2326.63,2107.7 2324.43,2108.95L2324.43,2102.28C2326.89,2101.33 2329.26,2100.63 2331.52,2100.16C2333.78,2099.68 2335.98,2099.45 2338.11,2099.45C2341.47,2099.45 2344.34,2099.94 2346.72,2100.93C2349.11,2101.93 2351.03,2103.41 2352.51,2105.4C2353.43,2106.61 2354.08,2108.1 2354.47,2109.88C2354.86,2111.66 2355.05,2114.32 2355.05,2117.88Z" style="fill:rgb(30,65,73);fill-rule:nonzero;stroke:rgb(30,65,73);stroke-width:1.54px;"/>
            <path d="M2385.87,2088.89L2385.87,2100.43L2401.03,2100.43L2401.03,2105.62L2385.87,2105.62L2385.87,2127.68C2385.87,2130.67 2386.44,2132.77 2387.57,2133.95C2388.71,2135.14 2390.69,2135.73 2393.52,2135.73L2401.03,2135.73L2401.03,2141.06L2392.87,2141.06C2387.86,2141.06 2384.33,2140.06 2382.28,2138.05C2380.22,2136.04 2379.19,2132.59 2379.19,2127.68L2379.19,2105.62L2368.35,2105.62L2368.35,2100.43L2379.19,2100.43L2379.19,2088.89L2385.87,2088.89Z" style="fill:rgb(30,65,73);fill-rule:nonzero;stroke:rgb(30,65,73);stroke-width:1.54px;"/>
            <path d="M2450.9,2119.08L2450.9,2122.34L2421.98,2122.34L2421.98,2122.56C2421.98,2126.99 2423.14,2130.41 2425.45,2132.83C2427.76,2135.24 2431.02,2136.45 2435.23,2136.45C2437.36,2136.45 2439.58,2136.12 2441.9,2135.44C2444.22,2134.76 2446.7,2133.73 2449.34,2132.36L2449.34,2138.99C2446.8,2140.03 2444.35,2140.82 2441.99,2141.34C2439.64,2141.86 2437.36,2142.12 2435.16,2142.12C2428.84,2142.12 2423.91,2140.22 2420.35,2136.44C2416.8,2132.65 2415.02,2127.43 2415.02,2120.78C2415.02,2114.3 2416.76,2109.12 2420.24,2105.25C2423.73,2101.38 2428.37,2099.45 2434.18,2099.45C2439.35,2099.45 2443.43,2101.2 2446.42,2104.71C2449.41,2108.22 2450.9,2113.01 2450.9,2119.08ZM2444.22,2117.12C2444.13,2113.2 2443.2,2110.22 2441.45,2108.17C2439.7,2106.13 2437.17,2105.11 2433.89,2105.11C2430.67,2105.11 2428.02,2106.17 2425.94,2108.3C2423.86,2110.43 2422.62,2113.38 2422.24,2117.15L2444.22,2117.12Z" style="fill:rgb(30,65,73);fill-rule:nonzero;stroke:rgb(30,65,73);stroke-width:1.54px;"/>
        </g>
        <g transform="matrix(6.67416e-17,0.901653,-0.85148,6.30278e-17,2304.5,78.2439)">
            <path d="M644.159,2039.35C638.415,2039.35 632.792,2041.1 627.966,2044.4L514.94,2121.67C506.421,2127.49 501.276,2137.49 501.276,2148.23L501.276,2248.34C501.276,2259.08 506.421,2269.08 514.94,2274.9L627.966,2352.17C632.792,2355.47 638.415,2357.22 644.159,2357.22L645.851,2357.22C651.596,2357.22 657.219,2355.47 662.045,2352.17L775.071,2274.9C783.589,2269.08 788.735,2259.08 788.735,2248.34L788.735,2148.23C788.735,2137.49 783.589,2127.49 775.071,2121.67L662.045,2044.4C657.219,2041.1 651.596,2039.35 645.851,2039.35L644.159,2039.35Z" style="fill:rgb(30,65,73);"/>
            <clipPath id="_clip1">
                <path d="M644.159,2039.35C638.415,2039.35 632.792,2041.1 627.966,2044.4L514.94,2121.67C506.421,2127.49 501.276,2137.49 501.276,2148.23L501.276,2248.34C501.276,2259.08 506.421,2269.08 514.94,2274.9L627.966,2352.17C632.792,2355.47 638.415,2357.22 644.159,2357.22L645.851,2357.22C651.596,2357.22 657.219,2355.47 662.045,2352.17L775.071,2274.9C783.589,2269.08 788.735,2259.08 788.735,2248.34L788.735,2148.23C788.735,2137.49 783.589,2127.49 775.071,2121.67L662.045,2044.4C657.219,2041.1 651.596,2039.35 645.851,2039.35L644.159,2039.35Z"/>
            </clipPath>
            <g clip-path="url(#_clip1)">
                <g transform="matrix(1.40001e-16,-2.0028,1.89135,1.4825e-16,-2992.1,3144.87)">
                    <g transform="matrix(2.83194e-17,0.382583,-0.382583,2.83194e-17,1115.39,1494.11)">
                        <path d="M1024.33,1255.89L922.459,1314.71L922.459,1589.17L1024.33,1647.99L1024.33,1255.89Z" style="fill:rgb(45,119,134);"/>
                    </g>
                    <g transform="matrix(2.83194e-17,0.382583,-0.382583,2.83194e-17,1142.36,1463.54)">
                        <path d="M1002.35,1640.06L1121.19,1708.67L1019.32,1767.49L1002.35,1757.68L1002.35,1640.06Z" style="fill:rgb(100,186,203);"/>
                    </g>
                    <g transform="matrix(-2.83194e-17,-0.382583,-0.382583,2.83194e-17,1187.21,2403.33)">
                        <path d="M1080.55,1678.86L1437.09,1884.71L1335.22,1943.52L1080.55,1796.49L1080.55,1678.86Z" style="fill:rgb(200,231,237);"/>
                    </g>
                    <g transform="matrix(-2.83194e-17,-0.382583,-0.382583,2.83194e-17,1198.59,2381.75)">
                        <path d="M1024.16,1590.99L922.29,1590.99L922.29,1767.43L1024.16,1826.24L1024.16,1590.99Z" style="fill:rgb(45,119,134);"/>
                    </g>
                    <g transform="matrix(2.83194e-17,0.382583,-0.382583,2.83194e-17,1186.38,1526.28)">
                        <path d="M1110.01,1696.31L1347.7,1833.54L1245.83,1892.35L1110.01,1813.94L1110.01,1696.31Z" style="fill:rgb(45,119,134);"/>
                    </g>
                    <g transform="matrix(2.83194e-17,0.382583,-0.382583,2.83194e-17,1174.48,1535.52)">
                        <path d="M1102.83,1439.74L983.983,1527.96L1289.59,1527.96L1170.74,1439.74L1102.83,1439.74Z" style="fill:rgb(100,186,203);"/>
                    </g>
                    <g transform="matrix(2.83194e-17,0.382583,-0.382583,2.83194e-17,1199.12,1551.18)">
                        <path d="M1044.94,1516.76L943.068,1592.38L943.068,1788.42L1044.94,1847.24L1044.94,1516.76Z" style="fill:rgb(203,232,238);"/>
                    </g>
                </g>
            </g>
        </g>
    </g>
</svg>
