<?xml version="1.0" encoding="UTF-8" standalone="no"?>
<!DOCTYPE svg PUBLIC "-//W3C//DTD SVG 1.1//EN" "http://www.w3.org/Graphics/SVG/1.1/DTD/svg11.dtd">
<svg width="100%" height="100%" viewBox="0 0 226 60" version="1.1" xmlns="http://www.w3.org/2000/svg" xmlns:xlink="http://www.w3.org/1999/xlink" xml:space="preserve" xmlns:serif="http://www.serif.com/" style="fill-rule:evenodd;clip-rule:evenodd;stroke-linejoin:round;stroke-miterlimit:2;">
    <g transform="matrix(1,0,0,1,-854.674,-1365.46)">
        <g transform="matrix(0.231492,0,0,0.231492,759.544,1236.68)">
            <g transform="matrix(0.946103,0,0,0.946103,-933.776,-1267.58)">
                <text x="1751.94px" y="2062.51px" style="font-family:'DINAlternate-Bold', 'DIN Alternate', sans-serif;font-weight:700;font-size:120.733px;fill:rgb(30,65,73);stroke:rgb(30,65,73);stroke-width:3.08px;">P<tspan x="1827.13px 1861.88px 1925.87px 1987.44px 2024.61px 2061.78px 2094.34px " y="2062.51px 2062.51px 2062.51px 2062.51px 2062.51px 2062.51px 2062.51px ">lasttic</tspan></text>
                <text x="1751.94px" y="2141.06px" style="font-family:'BitstreamVeraSansMono-Roman', 'Bitstream Vera Sans Mono', monospace;font-size:74.304px;fill:rgb(30,65,73);stroke:rgb(30,65,73);stroke-width:1.54px;">W<tspan x="1798.91px 1845.87px 1892.84px 1939.8px 1986.77px 2033.73px 2080.69px 2127.66px 2174.62px 2221.59px 2268.55px 2315.51px 2362.48px 2409.44px " y="2141.06px 2141.06px 2141.06px 2141.06px 2141.06px 2141.06px 2141.06px 2141.06px 2141.06px 2141.06px 2141.06px 2141.06px 2141.06px 2141.06px ">eb Boilerplate</tspan></text>
            </g>
            <g transform="matrix(6.67416e-17,0.901653,-0.85148,6.30278e-17,2418.07,104.351)">
                <path d="M644.159,2039.35C638.415,2039.35 632.792,2041.1 627.966,2044.4L514.94,2121.67C506.421,2127.49 501.276,2137.49 501.276,2148.23L501.276,2248.34C501.276,2259.08 506.421,2269.08 514.94,2274.9L627.966,2352.17C632.792,2355.47 638.415,2357.22 644.159,2357.22L645.851,2357.22C651.596,2357.22 657.219,2355.47 662.045,2352.17L775.071,2274.9C783.589,2269.08 788.735,2259.08 788.735,2248.34L788.735,2148.23C788.735,2137.49 783.589,2127.49 775.071,2121.67L662.045,2044.4C657.219,2041.1 651.596,2039.35 645.851,2039.35L644.159,2039.35Z" style="fill:rgb(30,65,73);"/>
                <clipPath id="_clip1">
                    <path d="M644.159,2039.35C638.415,2039.35 632.792,2041.1 627.966,2044.4L514.94,2121.67C506.421,2127.49 501.276,2137.49 501.276,2148.23L501.276,2248.34C501.276,2259.08 506.421,2269.08 514.94,2274.9L627.966,2352.17C632.792,2355.47 638.415,2357.22 644.159,2357.22L645.851,2357.22C651.596,2357.22 657.219,2355.47 662.045,2352.17L775.071,2274.9C783.589,2269.08 788.735,2259.08 788.735,2248.34L788.735,2148.23C788.735,2137.49 783.589,2127.49 775.071,2121.67L662.045,2044.4C657.219,2041.1 651.596,2039.35 645.851,2039.35L644.159,2039.35Z"/>
                </clipPath>
                <g clip-path="url(#_clip1)">
                    <g transform="matrix(1.40001e-16,-2.0028,1.89135,1.4825e-16,-2992.1,3144.87)">
                        <g transform="matrix(2.83194e-17,0.382583,-0.382583,2.83194e-17,1115.39,1494.11)">
                            <path d="M1024.33,1255.89L922.459,1314.71L922.459,1589.17L1024.33,1647.99L1024.33,1255.89Z" style="fill:rgb(45,119,134);"/>
                        </g>
                        <g transform="matrix(2.83194e-17,0.382583,-0.382583,2.83194e-17,1142.36,1463.54)">
                            <path d="M1002.35,1640.06L1121.19,1708.67L1019.32,1767.49L1002.35,1757.68L1002.35,1640.06Z" style="fill:rgb(100,186,203);"/>
                        </g>
                        <g transform="matrix(-2.83194e-17,-0.382583,-0.382583,2.83194e-17,1187.21,2403.33)">
                            <path d="M1080.55,1678.86L1437.09,1884.71L1335.22,1943.52L1080.55,1796.49L1080.55,1678.86Z" style="fill:rgb(200,231,237);"/>
                        </g>
                        <g transform="matrix(-2.83194e-17,-0.382583,-0.382583,2.83194e-17,1198.59,2381.75)">
                            <path d="M1024.16,1590.99L922.29,1590.99L922.29,1767.43L1024.16,1826.24L1024.16,1590.99Z" style="fill:rgb(45,119,134);"/>
                        </g>
                        <g transform="matrix(2.83194e-17,0.382583,-0.382583,2.83194e-17,1186.38,1526.28)">
                            <path d="M1110.01,1696.31L1347.7,1833.54L1245.83,1892.35L1110.01,1813.94L1110.01,1696.31Z" style="fill:rgb(45,119,134);"/>
                        </g>
                        <g transform="matrix(2.83194e-17,0.382583,-0.382583,2.83194e-17,1174.48,1535.52)">
                            <path d="M1102.83,1439.74L983.983,1527.96L1289.59,1527.96L1170.74,1439.74L1102.83,1439.74Z" style="fill:rgb(100,186,203);"/>
                        </g>
                        <g transform="matrix(2.83194e-17,0.382583,-0.382583,2.83194e-17,1199.12,1551.18)">
                            <path d="M1044.94,1516.76L943.068,1592.38L943.068,1788.42L1044.94,1847.24L1044.94,1516.76Z" style="fill:rgb(203,232,238);"/>
                        </g>
                    </g>
                </g>
            </g>
        </g>
    </g>
</svg>
