<?xml version="1.0" encoding="UTF-8" standalone="no"?>
<!DOCTYPE svg PUBLIC "-//W3C//DTD SVG 1.1//EN" "http://www.w3.org/Graphics/SVG/1.1/DTD/svg11.dtd">
<svg width="100%" height="100%" viewBox="0 0 974 260" version="1.1" xmlns="http://www.w3.org/2000/svg" xmlns:xlink="http://www.w3.org/1999/xlink" xml:space="preserve" xmlns:serif="http://www.serif.com/" style="fill-rule:evenodd;clip-rule:evenodd;stroke-linejoin:round;stroke-miterlimit:2;">
    <g transform="matrix(1,0,0,1,-568.04,-1152.8)">
        <g transform="matrix(0.946103,0,0,0.946103,-776.677,-671.103)">
            <path d="M1774.05,1988.88L1792.86,1988.88C1796.39,1988.8 1799.5,1989.61 1802.17,1991.3C1803.94,1992.32 1805.32,1993.71 1806.3,1995.48C1807.24,1997.45 1807.71,1999.87 1807.71,2002.73C1807.71,2006.19 1806.55,2009.34 1804.24,2012.17C1801.8,2015.07 1798.16,2016.57 1793.33,2016.65L1774.05,2016.65L1774.05,1988.88ZM1761.02,2062.51L1774.05,2062.51L1774.05,2028.97L1793.86,2028.97C1802.7,2028.81 1809.42,2025.98 1814.02,2020.48C1818.5,2015.25 1820.74,2009.45 1820.74,2003.09C1820.74,1998.37 1819.86,1994.28 1818.09,1990.83C1816.4,1987.25 1814.2,1984.5 1811.49,1982.57C1808.26,1980.02 1805.08,1978.33 1801.94,1977.5C1798.79,1976.87 1795.53,1976.56 1792.15,1976.56L1761.02,1976.56L1761.02,2062.51Z" style="fill:rgb(30,65,73);fill-rule:nonzero;stroke:rgb(30,65,73);stroke-width:3.08px;"/>
            <path d="M1835.09,2047.65C1835.09,2053.04 1836.63,2056.87 1839.69,2059.15C1842.6,2061.39 1846.29,2062.51 1850.77,2062.51L1856.26,2062.51L1856.26,2050.9L1852.01,2050.9C1848.95,2050.9 1847.41,2049.5 1847.41,2046.71L1847.41,1976.56L1835.09,1976.56L1835.09,2047.65Z" style="fill:rgb(30,65,73);fill-rule:nonzero;stroke:rgb(30,65,73);stroke-width:3.08px;"/>
            <path d="M1901.97,2062.51L1914.29,2062.51L1914.29,2020.71C1914.21,2013.25 1911.87,2007.98 1907.28,2004.91C1902.68,2001.93 1896.53,2000.47 1888.82,2000.55C1879.71,2000.39 1872.81,2003.38 1868.13,2009.51L1877.8,2016.88C1878.86,2015.11 1880.32,2013.86 1882.16,2013.11C1883.93,2012.48 1886.35,2012.17 1889.41,2012.17C1897.86,2012.01 1902.05,2014.62 1901.97,2020.01L1901.97,2026.43L1884.93,2026.43C1878.41,2026.51 1873.46,2028.28 1870.08,2031.74C1866.7,2035.12 1865.01,2039.38 1865.01,2044.53C1865.01,2049.91 1866.95,2054.34 1870.84,2057.8C1874.54,2061.33 1879.81,2063.14 1886.64,2063.22C1890.81,2063.22 1894.07,2062.71 1896.43,2061.68C1898.83,2060.7 1900.6,2059.17 1901.74,2057.09L1901.97,2057.09L1901.97,2062.51ZM1901.97,2040.99C1901.97,2045.59 1901.01,2048.54 1899.08,2049.84C1896.96,2051.13 1893.32,2051.74 1888.18,2051.66C1884.09,2051.66 1881.16,2050.86 1879.39,2049.25C1877.55,2047.79 1876.62,2046.02 1876.62,2043.94C1876.54,2039.18 1880.08,2036.73 1887.23,2036.57L1901.97,2036.57L1901.97,2040.99Z" style="fill:rgb(30,65,73);fill-rule:nonzero;stroke:rgb(30,65,73);stroke-width:3.08px;"/>
            <path d="M1935.66,2043.82L1927.05,2052.25C1935.03,2059.56 1944.01,2063.22 1953.99,2063.22C1961.34,2063.14 1967.37,2061.45 1972.09,2058.15C1976.85,2054.93 1979.26,2050.35 1979.34,2044.41C1979.34,2039.34 1978.03,2035.16 1975.39,2031.86C1972.56,2028.48 1967.96,2026.55 1961.6,2026.08L1951.46,2025.31C1948.47,2025 1946.39,2024.27 1945.21,2023.13C1943.91,2022.11 1943.3,2020.91 1943.38,2019.54C1943.38,2017.37 1944.19,2015.61 1945.8,2014.23C1947.33,2012.85 1950.02,2012.17 1953.87,2012.17C1957.25,2012.17 1960.24,2012.66 1962.84,2013.64C1965.47,2014.74 1967.96,2016.13 1970.32,2017.83L1977.93,2008.92C1974.94,2006.33 1971.56,2004.27 1967.79,2002.73C1965.82,2002.03 1963.72,2001.48 1961.48,2001.08C1959.24,2000.73 1956.7,2000.55 1953.87,2000.55C1947.35,2000.55 1941.97,2002.12 1937.72,2005.27C1933.36,2008.41 1931.14,2013.13 1931.06,2019.42C1931.14,2024.64 1932.83,2028.71 1936.13,2031.62C1939.35,2034.61 1943.54,2036.34 1948.69,2036.81L1959.53,2037.75C1961.81,2037.83 1963.64,2038.32 1965.02,2039.23C1966.35,2040.09 1967.02,2041.62 1967.02,2043.82C1967.02,2046.3 1965.9,2048.22 1963.66,2049.6C1961.42,2050.98 1958.53,2051.66 1954.99,2051.66C1947.1,2051.66 1940.65,2049.05 1935.66,2043.82Z" style="fill:rgb(30,65,73);fill-rule:nonzero;stroke:rgb(30,65,73);stroke-width:3.08px;"/>
            <path d="M1996.11,2001.32L1989.98,2001.32L1989.98,2010.69L1996.11,2010.69L1996.11,2047.42C1996.11,2052.25 1997.52,2055.95 2000.35,2058.5C2003.11,2061.17 2006.64,2062.51 2010.97,2062.51L2017.39,2062.51L2017.39,2050.9L2012.79,2050.9C2009.81,2050.98 2008.35,2049.46 2008.43,2046.36L2008.43,2010.69L2017.39,2010.69L2017.39,2001.32L2008.43,2001.32L2008.43,1982.69L1996.11,1982.69L1996.11,2001.32Z" style="fill:rgb(30,65,73);fill-rule:nonzero;stroke:rgb(30,65,73);stroke-width:3.08px;"/>
            <path d="M2033.28,2001.32L2027.14,2001.32L2027.14,2010.69L2033.28,2010.69L2033.28,2047.42C2033.28,2052.25 2034.69,2055.95 2037.52,2058.5C2040.27,2061.17 2043.81,2062.51 2048.13,2062.51L2054.56,2062.51L2054.56,2050.9L2049.96,2050.9C2046.97,2050.98 2045.52,2049.46 2045.6,2046.36L2045.6,2010.69L2054.56,2010.69L2054.56,2001.32L2045.6,2001.32L2045.6,1982.69L2033.28,1982.69L2033.28,2001.32Z" style="fill:rgb(30,65,73);fill-rule:nonzero;stroke:rgb(30,65,73);stroke-width:3.08px;"/>
            <path d="M2070.09,2062.51L2082.41,2062.51L2082.41,2001.32L2070.09,2001.32L2070.09,2062.51ZM2070.09,1988.88L2082.41,1988.88L2082.41,1976.56L2070.09,1976.56L2070.09,1988.88Z" style="fill:rgb(30,65,73);fill-rule:nonzero;stroke:rgb(30,65,73);stroke-width:3.08px;"/>
            <path d="M2138.26,2044.53C2135.16,2048.7 2131.01,2050.82 2125.82,2050.9C2115.37,2051.09 2110.06,2044.79 2109.91,2031.97C2110.06,2019.08 2115.37,2012.72 2125.82,2012.87C2131.01,2013.03 2135.16,2015.17 2138.26,2019.3L2147.34,2011.22C2144.67,2008 2141.52,2005.43 2137.91,2003.5C2134.29,2001.61 2130.11,2000.63 2125.35,2000.55C2118.12,2000.47 2111.77,2002.89 2106.31,2007.8C2100.65,2012.8 2097.74,2020.85 2097.58,2031.97C2097.74,2042.98 2100.65,2050.94 2106.31,2055.85C2111.77,2060.76 2118.12,2063.22 2125.35,2063.22C2130.11,2063.14 2134.29,2062.1 2137.91,2060.09C2141.52,2058.17 2144.67,2055.67 2147.34,2052.61L2138.26,2044.53Z" style="fill:rgb(30,65,73);fill-rule:nonzero;stroke:rgb(30,65,73);stroke-width:3.08px;"/>
            <path d="M1751.94,2086.89L1759.09,2086.89L1764.28,2130.87L1770.45,2101.77L1778.1,2101.77L1784.34,2130.94L1789.53,2086.89L1796.68,2086.89L1788.59,2141.06L1781.66,2141.06L1774.29,2108.88L1766.97,2141.06L1760.04,2141.06L1751.94,2086.89Z" style="fill:rgb(30,65,73);fill-rule:nonzero;stroke:rgb(30,65,73);stroke-width:1.54px;"/>
            <path d="M1839.25,2119.08L1839.25,2122.34L1810.34,2122.34L1810.34,2122.56C1810.34,2126.99 1811.49,2130.41 1813.8,2132.83C1816.11,2135.24 1819.37,2136.45 1823.58,2136.45C1825.71,2136.45 1827.93,2136.12 1830.26,2135.44C1832.58,2134.76 1835.06,2133.73 1837.69,2132.36L1837.69,2138.99C1835.15,2140.03 1832.7,2140.82 1830.35,2141.34C1827.99,2141.86 1825.71,2142.12 1823.51,2142.12C1817.19,2142.12 1812.26,2140.22 1808.7,2136.44C1805.15,2132.65 1803.37,2127.43 1803.37,2120.78C1803.37,2114.3 1805.11,2109.12 1808.6,2105.25C1812.08,2101.38 1816.72,2099.45 1822.53,2099.45C1827.7,2099.45 1831.79,2101.2 1834.77,2104.71C1837.76,2108.22 1839.25,2113.01 1839.25,2119.08ZM1832.58,2117.12C1832.48,2113.2 1831.56,2110.22 1829.8,2108.17C1828.05,2106.13 1825.53,2105.11 1822.24,2105.11C1819.02,2105.11 1816.37,2106.17 1814.29,2108.3C1812.21,2110.43 1810.98,2113.38 1810.59,2117.15L1832.58,2117.12Z" style="fill:rgb(30,65,73);fill-rule:nonzero;stroke:rgb(30,65,73);stroke-width:1.54px;"/>
            <path d="M1879.18,2120.78C1879.18,2115.61 1878.36,2111.7 1876.71,2109.06C1875.07,2106.43 1872.64,2105.11 1869.42,2105.11C1866.18,2105.11 1863.72,2106.43 1862.06,2109.08C1860.39,2111.73 1859.55,2115.63 1859.55,2120.78C1859.55,2125.91 1860.39,2129.8 1862.06,2132.46C1863.72,2135.12 1866.18,2136.45 1869.42,2136.45C1872.64,2136.45 1875.07,2135.14 1876.71,2132.5C1878.36,2129.86 1879.18,2125.96 1879.18,2120.78ZM1859.55,2105.62C1860.62,2103.63 1862.09,2102.11 1863.96,2101.04C1865.83,2099.98 1868.01,2099.45 1870.47,2099.45C1875.36,2099.45 1879.2,2101.33 1882.01,2105.09C1884.82,2108.85 1886.22,2114.03 1886.22,2120.64C1886.22,2127.34 1884.81,2132.59 1881.99,2136.4C1879.17,2140.21 1875.31,2142.12 1870.4,2142.12C1867.98,2142.12 1865.85,2141.59 1864,2140.54C1862.14,2139.48 1860.66,2137.95 1859.55,2135.95L1859.55,2141.06L1852.88,2141.06L1852.88,2084.61L1859.55,2084.61L1859.55,2105.62Z" style="fill:rgb(30,65,73);fill-rule:nonzero;stroke:rgb(30,65,73);stroke-width:1.54px;"/>
            <path d="M1953.19,2115.19L1953.19,2135.04L1961.86,2135.04C1966.12,2135.04 1969.15,2134.3 1970.97,2132.81C1972.78,2131.32 1973.69,2128.87 1973.69,2125.46C1973.69,2121.93 1972.73,2119.34 1970.82,2117.68C1968.91,2116.02 1965.92,2115.19 1961.86,2115.19L1953.19,2115.19ZM1953.19,2092.92L1953.19,2109.24L1961.72,2109.24C1965.25,2109.24 1967.8,2108.57 1969.39,2107.21C1970.97,2105.86 1971.77,2103.67 1971.77,2100.64C1971.77,2097.91 1970.99,2095.94 1969.42,2094.73C1967.87,2093.52 1965.3,2092.92 1961.72,2092.92L1953.19,2092.92ZM1945.82,2086.89L1961.86,2086.89C1967.4,2086.89 1971.67,2088.09 1974.67,2090.49C1977.67,2092.88 1979.17,2096.27 1979.17,2100.64C1979.17,2103.96 1978.37,2106.57 1976.79,2108.48C1975.21,2110.39 1972.83,2111.59 1969.66,2112.07C1973.22,2112.61 1976,2114.12 1978.02,2116.63C1980.04,2119.13 1981.05,2122.32 1981.05,2126.19C1981.05,2131.1 1979.44,2134.8 1976.23,2137.31C1973.01,2139.81 1968.22,2141.06 1961.86,2141.06L1945.82,2141.06L1945.82,2086.89Z" style="fill:rgb(30,65,73);fill-rule:nonzero;stroke:rgb(30,65,73);stroke-width:1.54px;"/>
            <path d="M2009.11,2105.11C2005.73,2105.11 2003.16,2106.43 2001.42,2109.06C1999.68,2111.7 1998.81,2115.61 1998.81,2120.78C1998.81,2125.93 1999.68,2129.83 2001.42,2132.48C2003.16,2135.13 2005.73,2136.45 2009.11,2136.45C2012.53,2136.45 2015.1,2135.13 2016.84,2132.48C2018.58,2129.83 2019.46,2125.93 2019.46,2120.78C2019.46,2115.61 2018.58,2111.7 2016.84,2109.06C2015.1,2106.43 2012.53,2105.11 2009.11,2105.11ZM2009.11,2099.45C2014.75,2099.45 2019.06,2101.27 2022.05,2104.93C2025.04,2108.58 2026.53,2113.86 2026.53,2120.78C2026.53,2127.72 2025.04,2133.01 2022.07,2136.65C2019.09,2140.29 2014.77,2142.12 2009.11,2142.12C2003.48,2142.12 1999.17,2140.29 1996.2,2136.65C1993.22,2133.01 1991.74,2127.72 1991.74,2120.78C1991.74,2113.86 1993.22,2108.58 1996.2,2104.93C1999.17,2101.27 2003.48,2099.45 2009.11,2099.45Z" style="fill:rgb(30,65,73);fill-rule:nonzero;stroke:rgb(30,65,73);stroke-width:1.54px;"/>
            <path d="M2043.02,2100.43L2060.11,2100.43L2060.11,2135.87L2073.35,2135.87L2073.35,2141.06L2040.19,2141.06L2040.19,2135.87L2053.43,2135.87L2053.43,2105.62L2043.02,2105.62L2043.02,2100.43ZM2053.43,2084.61L2060.11,2084.61L2060.11,2093.06L2053.43,2093.06L2053.43,2084.61Z" style="fill:rgb(30,65,73);fill-rule:nonzero;stroke:rgb(30,65,73);stroke-width:1.54px;"/>
            <path d="M2103.88,2126.33C2103.88,2129.33 2104.43,2131.59 2105.53,2133.12C2106.63,2134.64 2108.26,2135.4 2110.41,2135.4L2118.21,2135.4L2118.21,2141.06L2109.76,2141.06C2105.76,2141.06 2102.67,2139.78 2100.49,2137.22C2098.3,2134.65 2097.2,2131.03 2097.2,2126.33L2097.2,2089.43L2086.5,2089.43L2086.5,2084.21L2103.88,2084.21L2103.88,2126.33Z" style="fill:rgb(30,65,73);fill-rule:nonzero;stroke:rgb(30,65,73);stroke-width:1.54px;"/>
            <path d="M2168,2119.08L2168,2122.34L2139.09,2122.34L2139.09,2122.56C2139.09,2126.99 2140.24,2130.41 2142.55,2132.83C2144.86,2135.24 2148.12,2136.45 2152.33,2136.45C2154.46,2136.45 2156.68,2136.12 2159,2135.44C2161.33,2134.76 2163.8,2133.73 2166.44,2132.36L2166.44,2138.99C2163.9,2140.03 2161.45,2140.82 2159.1,2141.34C2156.74,2141.86 2154.46,2142.12 2152.26,2142.12C2145.94,2142.12 2141.01,2140.22 2137.45,2136.44C2133.9,2132.65 2132.12,2127.43 2132.12,2120.78C2132.12,2114.3 2133.86,2109.12 2137.34,2105.25C2140.83,2101.38 2145.47,2099.45 2151.28,2099.45C2156.45,2099.45 2160.53,2101.2 2163.52,2104.71C2166.51,2108.22 2168,2113.01 2168,2119.08ZM2161.33,2117.12C2161.23,2113.2 2160.3,2110.22 2158.55,2108.17C2156.8,2106.13 2154.28,2105.11 2150.99,2105.11C2147.77,2105.11 2145.12,2106.17 2143.04,2108.3C2140.96,2110.43 2139.73,2113.38 2139.34,2117.15L2161.33,2117.12Z" style="fill:rgb(30,65,73);fill-rule:nonzero;stroke:rgb(30,65,73);stroke-width:1.54px;"/>
            <path d="M2216.53,2108.81C2215.1,2107.7 2213.65,2106.89 2212.17,2106.38C2210.7,2105.87 2209.08,2105.62 2207.31,2105.62C2203.15,2105.62 2199.97,2106.92 2197.77,2109.53C2195.57,2112.15 2194.47,2115.92 2194.47,2120.85L2194.47,2141.06L2187.76,2141.06L2187.76,2100.43L2194.47,2100.43L2194.47,2108.37C2195.58,2105.49 2197.29,2103.29 2199.6,2101.75C2201.91,2100.22 2204.65,2099.45 2207.82,2099.45C2209.46,2099.45 2211,2099.65 2212.43,2100.07C2213.85,2100.48 2215.22,2101.12 2216.53,2101.99L2216.53,2108.81Z" style="fill:rgb(30,65,73);fill-rule:nonzero;stroke:rgb(30,65,73);stroke-width:1.54px;"/>
            <path d="M2235.19,2135.95L2235.19,2156.52L2228.48,2156.52L2228.48,2100.43L2235.19,2100.43L2235.19,2105.62C2236.3,2103.61 2237.78,2102.08 2239.64,2101.03C2241.49,2099.97 2243.62,2099.45 2246.04,2099.45C2250.95,2099.45 2254.8,2101.35 2257.59,2105.14C2260.39,2108.94 2261.78,2114.2 2261.78,2120.93C2261.78,2127.53 2260.38,2132.71 2257.58,2136.47C2254.77,2140.23 2250.93,2142.12 2246.04,2142.12C2243.57,2142.12 2241.41,2141.59 2239.56,2140.54C2237.71,2139.48 2236.26,2137.95 2235.19,2135.95ZM2254.78,2120.78C2254.78,2115.61 2253.97,2111.7 2252.33,2109.06C2250.7,2106.43 2248.28,2105.11 2245.06,2105.11C2241.82,2105.11 2239.36,2106.43 2237.69,2109.08C2236.03,2111.73 2235.19,2115.63 2235.19,2120.78C2235.19,2125.91 2236.03,2129.8 2237.69,2132.46C2239.36,2135.12 2241.82,2136.45 2245.06,2136.45C2248.28,2136.45 2250.7,2135.14 2252.33,2132.5C2253.97,2129.86 2254.78,2125.96 2254.78,2120.78Z" style="fill:rgb(30,65,73);fill-rule:nonzero;stroke:rgb(30,65,73);stroke-width:1.54px;"/>
            <path d="M2291.73,2126.33C2291.73,2129.33 2292.28,2131.59 2293.38,2133.12C2294.48,2134.64 2296.11,2135.4 2298.26,2135.4L2306.06,2135.4L2306.06,2141.06L2297.61,2141.06C2293.62,2141.06 2290.53,2139.78 2288.34,2137.22C2286.15,2134.65 2285.06,2131.03 2285.06,2126.33L2285.06,2089.43L2274.35,2089.43L2274.35,2084.21L2291.73,2084.21L2291.73,2126.33Z" style="fill:rgb(30,65,73);fill-rule:nonzero;stroke:rgb(30,65,73);stroke-width:1.54px;"/>
            <path d="M2347.22,2120.64L2338.77,2120.64C2334.88,2120.64 2331.94,2121.32 2329.97,2122.69C2328,2124.05 2327.01,2126.09 2327.01,2128.8C2327.01,2131.24 2327.75,2133.14 2329.23,2134.5C2330.7,2135.85 2332.75,2136.53 2335.36,2136.53C2339.04,2136.53 2341.93,2135.25 2344.03,2132.7C2346.14,2130.15 2347.2,2126.62 2347.22,2122.12L2347.22,2120.64ZM2353.93,2117.88L2353.93,2141.06L2347.22,2141.06L2347.22,2135.04C2345.8,2137.46 2344,2139.24 2341.84,2140.39C2339.67,2141.54 2337.04,2142.12 2333.94,2142.12C2329.81,2142.12 2326.51,2140.95 2324.04,2138.61C2321.57,2136.28 2320.34,2133.15 2320.34,2129.24C2320.34,2124.71 2321.86,2121.28 2324.89,2118.93C2327.93,2116.59 2332.38,2115.41 2338.26,2115.41L2347.22,2115.41L2347.22,2114.36C2347.2,2111.12 2346.38,2108.77 2344.76,2107.3C2343.14,2105.84 2340.55,2105.11 2336.99,2105.11C2334.72,2105.11 2332.42,2105.43 2330.1,2106.09C2327.78,2106.74 2325.51,2107.7 2323.31,2108.95L2323.31,2102.28C2325.78,2101.33 2328.14,2100.63 2330.41,2100.16C2332.67,2099.68 2334.86,2099.45 2336.99,2099.45C2340.35,2099.45 2343.23,2099.94 2345.61,2100.93C2347.99,2101.93 2349.92,2103.41 2351.39,2105.4C2352.32,2106.61 2352.97,2108.1 2353.36,2109.88C2353.74,2111.66 2353.93,2114.32 2353.93,2117.88Z" style="fill:rgb(30,65,73);fill-rule:nonzero;stroke:rgb(30,65,73);stroke-width:1.54px;"/>
            <path d="M2384.75,2088.89L2384.75,2100.43L2399.92,2100.43L2399.92,2105.62L2384.75,2105.62L2384.75,2127.68C2384.75,2130.67 2385.32,2132.77 2386.46,2133.95C2387.6,2135.14 2389.58,2135.73 2392.41,2135.73L2399.92,2135.73L2399.92,2141.06L2391.76,2141.06C2386.75,2141.06 2383.22,2140.06 2381.16,2138.05C2379.11,2136.04 2378.08,2132.59 2378.08,2127.68L2378.08,2105.62L2367.23,2105.62L2367.23,2100.43L2378.08,2100.43L2378.08,2088.89L2384.75,2088.89Z" style="fill:rgb(30,65,73);fill-rule:nonzero;stroke:rgb(30,65,73);stroke-width:1.54px;"/>
            <path d="M2449.79,2119.08L2449.79,2122.34L2420.87,2122.34L2420.87,2122.56C2420.87,2126.99 2422.03,2130.41 2424.34,2132.83C2426.64,2135.24 2429.9,2136.45 2434.11,2136.45C2436.24,2136.45 2438.47,2136.12 2440.79,2135.44C2443.11,2134.76 2445.59,2133.73 2448.23,2132.36L2448.23,2138.99C2445.69,2140.03 2443.24,2140.82 2440.88,2141.34C2438.52,2141.86 2436.24,2142.12 2434.04,2142.12C2427.73,2142.12 2422.79,2140.22 2419.24,2136.44C2415.68,2132.65 2413.9,2127.43 2413.9,2120.78C2413.9,2114.3 2415.64,2109.12 2419.13,2105.25C2422.61,2101.38 2427.26,2099.45 2433.06,2099.45C2438.24,2099.45 2442.32,2101.2 2445.3,2104.71C2448.29,2108.22 2449.79,2113.01 2449.79,2119.08ZM2443.11,2117.12C2443.01,2113.2 2442.09,2110.22 2440.34,2108.17C2438.58,2106.13 2436.06,2105.11 2432.77,2105.11C2429.55,2105.11 2426.91,2106.17 2424.83,2108.3C2422.74,2110.43 2421.51,2113.38 2421.12,2117.15L2443.11,2117.12Z" style="fill:rgb(30,65,73);fill-rule:nonzero;stroke:rgb(30,65,73);stroke-width:1.54px;"/>
        </g>
        <g transform="matrix(6.67416e-17,0.901653,-0.85148,6.30278e-17,2575.17,700.828)">
            <path d="M644.159,2039.35C638.415,2039.35 632.792,2041.1 627.966,2044.4L514.94,2121.67C506.421,2127.49 501.276,2137.49 501.276,2148.23L501.276,2248.34C501.276,2259.08 506.421,2269.08 514.94,2274.9L627.966,2352.17C632.792,2355.47 638.415,2357.22 644.159,2357.22L645.851,2357.22C651.596,2357.22 657.219,2355.47 662.045,2352.17L775.071,2274.9C783.589,2269.08 788.735,2259.08 788.735,2248.34L788.735,2148.23C788.735,2137.49 783.589,2127.49 775.071,2121.67L662.045,2044.4C657.219,2041.1 651.596,2039.35 645.851,2039.35L644.159,2039.35Z" style="fill:rgb(30,65,73);"/>
            <clipPath id="_clip1">
                <path d="M644.159,2039.35C638.415,2039.35 632.792,2041.1 627.966,2044.4L514.94,2121.67C506.421,2127.49 501.276,2137.49 501.276,2148.23L501.276,2248.34C501.276,2259.08 506.421,2269.08 514.94,2274.9L627.966,2352.17C632.792,2355.47 638.415,2357.22 644.159,2357.22L645.851,2357.22C651.596,2357.22 657.219,2355.47 662.045,2352.17L775.071,2274.9C783.589,2269.08 788.735,2259.08 788.735,2248.34L788.735,2148.23C788.735,2137.49 783.589,2127.49 775.071,2121.67L662.045,2044.4C657.219,2041.1 651.596,2039.35 645.851,2039.35L644.159,2039.35Z"/>
            </clipPath>
            <g clip-path="url(#_clip1)">
                <g transform="matrix(1.40001e-16,-2.0028,1.89135,1.4825e-16,-2992.1,3144.87)">
                    <g transform="matrix(2.83194e-17,0.382583,-0.382583,2.83194e-17,1115.39,1494.11)">
                        <path d="M1024.33,1255.89L922.459,1314.71L922.459,1589.17L1024.33,1647.99L1024.33,1255.89Z" style="fill:rgb(45,119,134);"/>
                    </g>
                    <g transform="matrix(2.83194e-17,0.382583,-0.382583,2.83194e-17,1142.36,1463.54)">
                        <path d="M1002.35,1640.06L1121.19,1708.67L1019.32,1767.49L1002.35,1757.68L1002.35,1640.06Z" style="fill:rgb(100,186,203);"/>
                    </g>
                    <g transform="matrix(-2.83194e-17,-0.382583,-0.382583,2.83194e-17,1187.21,2403.33)">
                        <path d="M1080.55,1678.86L1437.09,1884.71L1335.22,1943.52L1080.55,1796.49L1080.55,1678.86Z" style="fill:rgb(200,231,237);"/>
                    </g>
                    <g transform="matrix(-2.83194e-17,-0.382583,-0.382583,2.83194e-17,1198.59,2381.75)">
                        <path d="M1024.16,1590.99L922.29,1590.99L922.29,1767.43L1024.16,1826.24L1024.16,1590.99Z" style="fill:rgb(45,119,134);"/>
                    </g>
                    <g transform="matrix(2.83194e-17,0.382583,-0.382583,2.83194e-17,1186.38,1526.28)">
                        <path d="M1110.01,1696.31L1347.7,1833.54L1245.83,1892.35L1110.01,1813.94L1110.01,1696.31Z" style="fill:rgb(45,119,134);"/>
                    </g>
                    <g transform="matrix(2.83194e-17,0.382583,-0.382583,2.83194e-17,1174.48,1535.52)">
                        <path d="M1102.83,1439.74L983.983,1527.96L1289.59,1527.96L1170.74,1439.74L1102.83,1439.74Z" style="fill:rgb(100,186,203);"/>
                    </g>
                    <g transform="matrix(2.83194e-17,0.382583,-0.382583,2.83194e-17,1199.12,1551.18)">
                        <path d="M1044.94,1516.76L943.068,1592.38L943.068,1788.42L1044.94,1847.24L1044.94,1516.76Z" style="fill:rgb(203,232,238);"/>
                    </g>
                </g>
            </g>
        </g>
    </g>
</svg>
