<svg clip-rule="evenodd" fill-rule="evenodd" stroke-linejoin="round" stroke-miterlimit="2" viewBox="0 0 974 260" xmlns="http://www.w3.org/2000/svg" xmlns:xlink="http://www.w3.org/1999/xlink"><clipPath id="a"><path clip-rule="evenodd" d="m644.159 2039.35c-5.744 0-11.367 1.75-16.193 5.05l-113.026 77.27c-8.519 5.82-13.664 15.82-13.664 26.56v100.11c0 10.74 5.145 20.74 13.664 26.56l113.026 77.27c4.826 3.3 10.449 5.05 16.193 5.05h1.692c5.745 0 11.368-1.75 16.194-5.05l113.026-77.27c8.518-5.82 13.664-15.82 13.664-26.56v-100.11c0-10.74-5.146-20.74-13.664-26.56l-113.026-77.27c-4.826-3.3-10.449-5.05-16.194-5.05z"/></clipPath><g fill="#1e4149" fill-rule="nonzero" stroke="#1e4149" transform="matrix(.946103 0 0 .946103 -1344.717 -1823.903)"><path d="m1774.05 1988.88h18.81c3.53-.08 6.64.73 9.31 2.42 1.77 1.02 3.15 2.41 4.13 4.18.94 1.97 1.41 4.39 1.41 7.25 0 3.46-1.16 6.61-3.47 9.44-2.44 2.9-6.08 4.4-10.91 4.48h-19.28zm-13.03 73.63h13.03v-33.54h19.81c8.84-.16 15.56-2.99 20.16-8.49 4.48-5.23 6.72-11.03 6.72-17.39 0-4.72-.88-8.81-2.65-12.26-1.69-3.58-3.89-6.33-6.6-8.26-3.23-2.55-6.41-4.24-9.55-5.07-3.15-.63-6.41-.94-9.79-.94h-31.13z" stroke-width="3.08"/><path d="m1835.09 2047.65c0 5.39 1.54 9.22 4.6 11.5 2.91 2.24 6.6 3.36 11.08 3.36h5.49v-11.61h-4.25c-3.06 0-4.6-1.4-4.6-4.19v-70.15h-12.32z" stroke-width="3.08"/><path d="m1901.97 2062.51h12.32v-41.8c-.08-7.46-2.42-12.73-7.01-15.8-4.6-2.98-10.75-4.44-18.46-4.36-9.11-.16-16.01 2.83-20.69 8.96l9.67 7.37c1.06-1.77 2.52-3.02 4.36-3.77 1.77-.63 4.19-.94 7.25-.94 8.45-.16 12.64 2.45 12.56 7.84v6.42h-17.04c-6.52.08-11.47 1.85-14.85 5.31-3.38 3.38-5.07 7.64-5.07 12.79 0 5.38 1.94 9.81 5.83 13.27 3.7 3.53 8.97 5.34 15.8 5.42 4.17 0 7.43-.51 9.79-1.54 2.4-.98 4.17-2.51 5.31-4.59h.23zm0-21.52c0 4.6-.96 7.55-2.89 8.85-2.12 1.29-5.76 1.9-10.9 1.82-4.09 0-7.02-.8-8.79-2.41-1.84-1.46-2.77-3.23-2.77-5.31-.08-4.76 3.46-7.21 10.61-7.37h14.74z" stroke-width="3.08"/><path d="m1935.66 2043.82-8.61 8.43c7.98 7.31 16.96 10.97 26.94 10.97 7.35-.08 13.38-1.77 18.1-5.07 4.76-3.22 7.17-7.8 7.25-13.74 0-5.07-1.31-9.25-3.95-12.55-2.83-3.38-7.43-5.31-13.79-5.78l-10.14-.77c-2.99-.31-5.07-1.04-6.25-2.18-1.3-1.02-1.91-2.22-1.83-3.59 0-2.17.81-3.93 2.42-5.31 1.53-1.38 4.22-2.06 8.07-2.06 3.38 0 6.37.49 8.97 1.47 2.63 1.1 5.12 2.49 7.48 4.19l7.61-8.91c-2.99-2.59-6.37-4.65-10.14-6.19-1.97-.7-4.07-1.25-6.31-1.65-2.24-.35-4.78-.53-7.61-.53-6.52 0-11.9 1.57-16.15 4.72-4.36 3.14-6.58 7.86-6.66 14.15.08 5.22 1.77 9.29 5.07 12.2 3.22 2.99 7.41 4.72 12.56 5.19l10.84.94c2.28.08 4.11.57 5.49 1.48 1.33.86 2 2.39 2 4.59 0 2.48-1.12 4.4-3.36 5.78s-5.13 2.06-8.67 2.06c-7.89 0-14.34-2.61-19.33-7.84z" stroke-width="3.08"/><path d="m1996.11 2001.32h-6.13v9.37h6.13v36.73c0 4.83 1.41 8.53 4.24 11.08 2.76 2.67 6.29 4.01 10.62 4.01h6.42v-11.61h-4.6c-2.98.08-4.44-1.44-4.36-4.54v-35.67h8.96v-9.37h-8.96v-18.63h-12.32z" stroke-width="3.08"/><path d="m2033.28 2001.32h-6.14v9.37h6.14v36.73c0 4.83 1.41 8.53 4.24 11.08 2.75 2.67 6.29 4.01 10.61 4.01h6.43v-11.61h-4.6c-2.99.08-4.44-1.44-4.36-4.54v-35.67h8.96v-9.37h-8.96v-18.63h-12.32z" stroke-width="3.08"/><path d="m2070.09 2062.51h12.32v-61.19h-12.32zm0-73.63h12.32v-12.32h-12.32z" stroke-width="3.08"/><path d="m2138.26 2044.53c-3.1 4.17-7.25 6.29-12.44 6.37-10.45.19-15.76-6.11-15.91-18.93.15-12.89 5.46-19.25 15.91-19.1 5.19.16 9.34 2.3 12.44 6.43l9.08-8.08c-2.67-3.22-5.82-5.79-9.43-7.72-3.62-1.89-7.8-2.87-12.56-2.95-7.23-.08-13.58 2.34-19.04 7.25-5.66 5-8.57 13.05-8.73 24.17.16 11.01 3.07 18.97 8.73 23.88 5.46 4.91 11.81 7.37 19.04 7.37 4.76-.08 8.94-1.12 12.56-3.13 3.61-1.92 6.76-4.42 9.43-7.48z" stroke-width="3.08"/><g stroke-width="1.54"><path d="m1751.94 2086.89h7.15l5.19 43.98 6.17-29.1h7.65l6.24 29.17 5.19-44.05h7.15l-8.09 54.17h-6.93l-7.37-32.18-7.32 32.18h-6.93z"/><path d="m1839.25 2119.08v3.26h-28.91v.22c0 4.43 1.15 7.85 3.46 10.27 2.31 2.41 5.57 3.62 9.78 3.62 2.13 0 4.35-.33 6.68-1.01 2.32-.68 4.8-1.71 7.43-3.08v6.63c-2.54 1.04-4.99 1.83-7.34 2.35-2.36.52-4.64.78-6.84.78-6.32 0-11.25-1.9-14.81-5.68-3.55-3.79-5.33-9.01-5.33-15.66 0-6.48 1.74-11.66 5.23-15.53 3.48-3.87 8.12-5.8 13.93-5.8 5.17 0 9.26 1.75 12.24 5.26 2.99 3.51 4.48 8.3 4.48 14.37zm-6.67-1.96c-.1-3.92-1.02-6.9-2.78-8.95-1.75-2.04-4.27-3.06-7.56-3.06-3.22 0-5.87 1.06-7.95 3.19s-3.31 5.08-3.7 8.85z"/><path d="m1879.18 2120.78c0-5.17-.82-9.08-2.47-11.72-1.64-2.63-4.07-3.95-7.29-3.95-3.24 0-5.7 1.32-7.36 3.97-1.67 2.65-2.51 6.55-2.51 11.7 0 5.13.84 9.02 2.51 11.68 1.66 2.66 4.12 3.99 7.36 3.99 3.22 0 5.65-1.31 7.29-3.95 1.65-2.64 2.47-6.54 2.47-11.72zm-19.63-15.16c1.07-1.99 2.54-3.51 4.41-4.58 1.87-1.06 4.05-1.59 6.51-1.59 4.89 0 8.73 1.88 11.54 5.64s4.21 8.94 4.21 15.55c0 6.7-1.41 11.95-4.23 15.76s-6.68 5.72-11.59 5.72c-2.42 0-4.55-.53-6.4-1.58-1.86-1.06-3.34-2.59-4.45-4.59v5.11h-6.67v-56.45h6.67z"/><path d="m1953.19 2115.19v19.85h8.67c4.26 0 7.29-.74 9.11-2.23 1.81-1.49 2.72-3.94 2.72-7.35 0-3.53-.96-6.12-2.87-7.78s-4.9-2.49-8.96-2.49zm0-22.27v16.32h8.53c3.53 0 6.08-.67 7.67-2.03 1.58-1.35 2.38-3.54 2.38-6.57 0-2.73-.78-4.7-2.35-5.91-1.55-1.21-4.12-1.81-7.7-1.81zm-7.37-6.03h16.04c5.54 0 9.81 1.2 12.81 3.6 3 2.39 4.5 5.78 4.5 10.15 0 3.32-.8 5.93-2.38 7.84s-3.96 3.11-7.13 3.59c3.56.54 6.34 2.05 8.36 4.56 2.02 2.5 3.03 5.69 3.03 9.56 0 4.91-1.61 8.61-4.82 11.12-3.22 2.5-8.01 3.75-14.37 3.75h-16.04z"/><path d="m2009.11 2105.11c-3.38 0-5.95 1.32-7.69 3.95-1.74 2.64-2.61 6.55-2.61 11.72 0 5.15.87 9.05 2.61 11.7s4.31 3.97 7.69 3.97c3.42 0 5.99-1.32 7.73-3.97s2.62-6.55 2.62-11.7c0-5.17-.88-9.08-2.62-11.72-1.74-2.63-4.31-3.95-7.73-3.95zm0-5.66c5.64 0 9.95 1.82 12.94 5.48 2.99 3.65 4.48 8.93 4.48 15.85 0 6.94-1.49 12.23-4.46 15.87-2.98 3.64-7.3 5.47-12.96 5.47-5.63 0-9.94-1.83-12.91-5.47-2.98-3.64-4.46-8.93-4.46-15.87 0-6.92 1.48-12.2 4.46-15.85 2.97-3.66 7.28-5.48 12.91-5.48z"/><path d="m2043.02 2100.43h17.09v35.44h13.24v5.19h-33.16v-5.19h13.24v-30.25h-10.41zm10.41-15.82h6.68v8.45h-6.68z"/><path d="m2103.88 2126.33c0 3 .55 5.26 1.65 6.79 1.1 1.52 2.73 2.28 4.88 2.28h7.8v5.66h-8.45c-4 0-7.09-1.28-9.27-3.84-2.19-2.57-3.29-6.19-3.29-10.89v-36.9h-10.7v-5.22h17.38z"/><path d="m2168 2119.08v3.26h-28.91v.22c0 4.43 1.15 7.85 3.46 10.27 2.31 2.41 5.57 3.62 9.78 3.62 2.13 0 4.35-.33 6.67-1.01 2.33-.68 4.8-1.71 7.44-3.08v6.63c-2.54 1.04-4.99 1.83-7.34 2.35-2.36.52-4.64.78-6.84.78-6.32 0-11.25-1.9-14.81-5.68-3.55-3.79-5.33-9.01-5.33-15.66 0-6.48 1.74-11.66 5.22-15.53 3.49-3.87 8.13-5.8 13.94-5.8 5.17 0 9.25 1.75 12.24 5.26s4.48 8.3 4.48 14.37zm-6.67-1.96c-.1-3.92-1.03-6.9-2.78-8.95-1.75-2.04-4.27-3.06-7.56-3.06-3.22 0-5.87 1.06-7.95 3.19s-3.31 5.08-3.7 8.85z"/><path d="m2216.53 2108.81c-1.43-1.11-2.88-1.92-4.36-2.43-1.47-.51-3.09-.76-4.86-.76-4.16 0-7.34 1.3-9.54 3.91-2.2 2.62-3.3 6.39-3.3 11.32v20.21h-6.71v-40.63h6.71v7.94c1.11-2.88 2.82-5.08 5.13-6.62 2.31-1.53 5.05-2.3 8.22-2.3 1.64 0 3.18.2 4.61.62 1.42.41 2.79 1.05 4.1 1.92z"/><path d="m2235.19 2135.95v20.57h-6.71v-56.09h6.71v5.19c1.11-2.01 2.59-3.54 4.45-4.59 1.85-1.06 3.98-1.58 6.4-1.58 4.91 0 8.76 1.9 11.55 5.69 2.8 3.8 4.19 9.06 4.19 15.79 0 6.6-1.4 11.78-4.2 15.54-2.81 3.76-6.65 5.65-11.54 5.65-2.47 0-4.63-.53-6.48-1.58-1.85-1.06-3.3-2.59-4.37-4.59zm19.59-15.17c0-5.17-.81-9.08-2.45-11.72-1.63-2.63-4.05-3.95-7.27-3.95-3.24 0-5.7 1.32-7.37 3.97-1.66 2.65-2.5 6.55-2.5 11.7 0 5.13.84 9.02 2.5 11.68 1.67 2.66 4.13 3.99 7.37 3.99 3.22 0 5.64-1.31 7.27-3.95 1.64-2.64 2.45-6.54 2.45-11.72z"/><path d="m2291.73 2126.33c0 3 .55 5.26 1.65 6.79 1.1 1.52 2.73 2.28 4.88 2.28h7.8v5.66h-8.45c-3.99 0-7.08-1.28-9.27-3.84-2.19-2.57-3.28-6.19-3.28-10.89v-36.9h-10.71v-5.22h17.38z"/><path d="m2347.22 2120.64h-8.45c-3.89 0-6.83.68-8.8 2.05-1.97 1.36-2.96 3.4-2.96 6.11 0 2.44.74 4.34 2.22 5.7 1.47 1.35 3.52 2.03 6.13 2.03 3.68 0 6.57-1.28 8.67-3.83 2.11-2.55 3.17-6.08 3.19-10.58zm6.71-2.76v23.18h-6.71v-6.02c-1.42 2.42-3.22 4.2-5.38 5.35-2.17 1.15-4.8 1.73-7.9 1.73-4.13 0-7.43-1.17-9.9-3.51-2.47-2.33-3.7-5.46-3.7-9.37 0-4.53 1.52-7.96 4.55-10.31 3.04-2.34 7.49-3.52 13.37-3.52h8.96v-1.05c-.02-3.24-.84-5.59-2.46-7.06-1.62-1.46-4.21-2.19-7.77-2.19-2.27 0-4.57.32-6.89.98-2.32.65-4.59 1.61-6.79 2.86v-6.67c2.47-.95 4.83-1.65 7.1-2.12 2.26-.48 4.45-.71 6.58-.71 3.36 0 6.24.49 8.62 1.48 2.38 1 4.31 2.48 5.78 4.47.93 1.21 1.58 2.7 1.97 4.48.38 1.78.57 4.44.57 8z"/><path d="m2384.75 2088.89v11.54h15.17v5.19h-15.17v22.06c0 2.99.57 5.09 1.71 6.27 1.14 1.19 3.12 1.78 5.95 1.78h7.51v5.33h-8.16c-5.01 0-8.54-1-10.6-3.01-2.05-2.01-3.08-5.46-3.08-10.37v-22.06h-10.85v-5.19h10.85v-11.54z"/><path d="m2449.79 2119.08v3.26h-28.92v.22c0 4.43 1.16 7.85 3.47 10.27 2.3 2.41 5.56 3.62 9.77 3.62 2.13 0 4.36-.33 6.68-1.01s4.8-1.71 7.44-3.08v6.63c-2.54 1.04-4.99 1.83-7.35 2.35s-4.64.78-6.84.78c-6.31 0-11.25-1.9-14.8-5.68-3.56-3.79-5.34-9.01-5.34-15.66 0-6.48 1.74-11.66 5.23-15.53 3.48-3.87 8.13-5.8 13.93-5.8 5.18 0 9.26 1.75 12.24 5.26 2.99 3.51 4.49 8.3 4.49 14.37zm-6.68-1.96c-.1-3.92-1.02-6.9-2.77-8.95-1.76-2.04-4.28-3.06-7.57-3.06-3.22 0-5.86 1.06-7.94 3.19-2.09 2.13-3.32 5.08-3.71 8.85z"/></g></g><g transform="matrix(0 .901653 -.85148 0 2007.13 -451.972)"><path d="m644.159 2039.35c-5.744 0-11.367 1.75-16.193 5.05l-113.026 77.27c-8.519 5.82-13.664 15.82-13.664 26.56v100.11c0 10.74 5.145 20.74 13.664 26.56l113.026 77.27c4.826 3.3 10.449 5.05 16.193 5.05h1.692c5.745 0 11.368-1.75 16.194-5.05l113.026-77.27c8.518-5.82 13.664-15.82 13.664-26.56v-100.11c0-10.74-5.146-20.74-13.664-26.56l-113.026-77.27c-4.826-3.3-10.449-5.05-16.194-5.05z" fill="#1e4149"/><g clip-path="url(#a)"><path d="m1024.33 1255.89-101.871 58.82v274.46l101.871 58.82z" fill="#2d7786" transform="matrix(.72359835705 0 0 .7662372324 -166.2150515 910.966908)"/><path d="m1002.35 1640.06 118.84 68.61-101.87 58.82-16.97-9.81z" fill="#64bacb" transform="matrix(.72359835705 0 0 .7662372324 -224.033621 856.951392)"/><path d="m1080.55 1678.86 356.54 205.85-101.87 58.81-254.67-147.03z" fill="#c8e7ed" transform="matrix(-.72359835705 0 0 .7662372324 1553.4381955 767.125812)"/><path d="m1024.16 1590.99h-101.87v176.44l101.87 58.81z" fill="#2d7786" transform="matrix(-.72359835705 0 0 .7662372324 1512.6228625 744.333948)"/><path d="m1110.01 1696.31 237.69 137.23-101.87 58.81-135.82-78.41z" fill="#2d7786" transform="matrix(.72359835705 0 0 .7662372324 -105.370322 768.788136)"/><path d="m1102.83 1439.74-118.847 88.22h305.607l-118.85-88.22z" fill="#64bacb" transform="matrix(.72359835705 0 0 .7662372324 -87.894248 792.621456)"/><path d="m1044.94 1516.76-101.872 75.62v196.04l101.872 58.82z" fill="#cbe8ee" transform="matrix(.72359835705 0 0 .7662372324 -58.275707 743.272464)"/></g></g></svg>