<svg width="92" height="21" viewBox="0 0 92 21" fill="none" xmlns="http://www.w3.org/2000/svg">
<rect width="91.1787" height="21" rx="4" fill="url(#paint0_linear_822_20334)"/>
<path d="M9.37972 6.27395C9.26246 6.11713 9.15076 5.99171 8.98486 5.9326C8.79746 5.849 8.58719 5.84359 8.39034 5.95623C8.31672 5.99836 8.26773 6.03745 8.22667 6.08402C7.99794 6.29459 7.92928 6.63315 8.08096 6.91846L8.08146 6.91822C8.11619 6.99358 8.15021 7.05777 8.19197 7.13588L10.1689 10.2738L11.0674 11.7L11.4146 12.2511L12.8772 14.6666C12.9625 14.8073 13.0852 14.9241 13.2329 15.0053C13.3806 15.0866 13.5482 15.1293 13.7188 15.1293C13.8893 15.1293 14.0569 15.0866 14.2046 15.0053C14.3523 14.9241 14.475 14.8073 14.5603 14.6666L19.0482 7.26024C19.1336 7.11955 19.1786 6.95994 19.1787 6.79743C19.1787 6.63493 19.1339 6.47527 19.0486 6.33452C18.9634 6.19377 18.8407 6.07689 18.693 5.99563C18.5453 5.91437 18.3777 5.8716 18.2072 5.87162H14.8362C13.5005 5.87162 12.5156 6.43055 11.8378 7.52101L11.6391 7.84879L11.5894 7.93074L12.5467 9.26364L13.1357 8.29136C13.5858 7.58383 14.0972 7.32605 14.8911 7.32605L17.2437 7.32655L13.7172 13.1453L12.7171 11.4917L12.7178 11.4904L12.6804 11.431L11.9576 10.2359L11.0429 8.83214L9.99584 7.17039L9.37972 6.27395Z" fill="white"/>
<path d="M8.77714 12.6548C8.75344 12.695 8.72556 12.7516 8.71074 12.7938C8.63861 13.0178 8.68777 13.2606 8.83527 13.4413C8.84255 13.4513 8.8502 13.4603 8.85825 13.468C8.9107 13.5261 8.97396 13.5768 9.04718 13.6171C9.39643 13.8095 9.84054 13.6935 10.042 13.3581C10.0834 13.313 10.1203 13.264 10.152 13.2116L10.6097 12.4558L9.68631 11.0698L9.63268 11.1582L9.52544 11.3351L9.31096 11.6889L8.77714 12.6548Z" fill="white"/>
<path d="M29.2231 11C29.2231 11.8437 29.0708 12.5729 28.7661 13.1875C28.4614 13.8021 28.0434 14.276 27.5122 14.6094C26.9809 14.9427 26.3742 15.1094 25.6919 15.1094C25.0096 15.1094 24.4028 14.9427 23.8716 14.6094C23.3403 14.276 22.9223 13.8021 22.6176 13.1875C22.313 12.5729 22.1606 11.8437 22.1606 11C22.1606 10.1562 22.313 9.42708 22.6176 8.8125C22.9223 8.19792 23.3403 7.72396 23.8716 7.39062C24.4028 7.05729 25.0096 6.89062 25.6919 6.89062C26.3742 6.89062 26.9809 7.05729 27.5122 7.39062C28.0434 7.72396 28.4614 8.19792 28.7661 8.8125C29.0708 9.42708 29.2231 10.1562 29.2231 11ZM28.2856 11C28.2856 10.3073 28.1697 9.72266 27.938 9.24609C27.7088 8.76953 27.3976 8.40885 27.0044 8.16406C26.6137 7.91927 26.1762 7.79687 25.6919 7.79687C25.2075 7.79687 24.7687 7.91927 24.3755 8.16406C23.9848 8.40885 23.6736 8.76953 23.4419 9.24609C23.2127 9.72266 23.0981 10.3073 23.0981 11C23.0981 11.6927 23.2127 12.2773 23.4419 12.7539C23.6736 13.2305 23.9848 13.5911 24.3755 13.8359C24.7687 14.0807 25.2075 14.2031 25.6919 14.2031C26.1762 14.2031 26.6137 14.0807 27.0044 13.8359C27.3976 13.5911 27.7088 13.2305 27.938 12.7539C28.1697 12.2773 28.2856 11.6927 28.2856 11ZM30.727 17.25V9H31.6176V9.95312H31.727C31.7947 9.84896 31.8885 9.71615 32.0083 9.55469C32.1307 9.39062 32.3051 9.24479 32.5317 9.11719C32.7609 8.98698 33.0708 8.92188 33.4614 8.92188C33.9666 8.92188 34.4119 9.04818 34.7973 9.30078C35.1827 9.55339 35.4835 9.91146 35.6997 10.375C35.9158 10.8385 36.0239 11.3854 36.0239 12.0156C36.0239 12.651 35.9158 13.2018 35.6997 13.668C35.4835 14.1315 35.1841 14.4909 34.8012 14.7461C34.4184 14.9987 33.977 15.125 33.477 15.125C33.0916 15.125 32.783 15.0612 32.5512 14.9336C32.3195 14.8034 32.1411 14.6562 32.0161 14.4922C31.8911 14.3255 31.7947 14.1875 31.727 14.0781H31.6489V17.25H30.727ZM31.6333 12C31.6333 12.4531 31.6997 12.8529 31.8325 13.1992C31.9653 13.543 32.1593 13.8125 32.4145 14.0078C32.6697 14.2005 32.9822 14.2969 33.352 14.2969C33.7374 14.2969 34.0591 14.1953 34.3169 13.9922C34.5773 13.7865 34.7726 13.5104 34.9028 13.1641C35.0356 12.8151 35.102 12.4271 35.102 12C35.102 11.5781 35.0369 11.1979 34.9067 10.8594C34.7791 10.5182 34.5851 10.2487 34.3247 10.0508C34.0669 9.85026 33.7426 9.75 33.352 9.75C32.977 9.75 32.6619 9.84505 32.4067 10.0352C32.1515 10.2227 31.9588 10.4857 31.8286 10.8242C31.6984 11.1602 31.6333 11.5521 31.6333 12ZM39.9458 15.125C39.3676 15.125 38.8689 14.9974 38.4497 14.7422C38.033 14.4844 37.7114 14.125 37.4848 13.6641C37.2609 13.2005 37.1489 12.6615 37.1489 12.0469C37.1489 11.4323 37.2609 10.8906 37.4848 10.4219C37.7114 9.95052 38.0265 9.58333 38.4301 9.32031C38.8364 9.05469 39.3104 8.92188 39.852 8.92188C40.1645 8.92188 40.4731 8.97396 40.7778 9.07812C41.0825 9.18229 41.3598 9.35156 41.6098 9.58594C41.8598 9.81771 42.0591 10.125 42.2075 10.5078C42.3559 10.8906 42.4301 11.362 42.4301 11.9219V12.3125H37.8051V11.5156H41.4926C41.4926 11.1771 41.4249 10.875 41.2895 10.6094C41.1567 10.3437 40.9666 10.1341 40.7192 9.98047C40.4744 9.82682 40.1854 9.75 39.852 9.75C39.4848 9.75 39.1671 9.84115 38.8989 10.0234C38.6333 10.2031 38.4288 10.4375 38.2856 10.7266C38.1424 11.0156 38.0708 11.3255 38.0708 11.6562V12.1875C38.0708 12.6406 38.1489 13.0247 38.3051 13.3398C38.464 13.6523 38.6841 13.8906 38.9653 14.0547C39.2466 14.2161 39.5734 14.2969 39.9458 14.2969C40.188 14.2969 40.4067 14.263 40.602 14.1953C40.7999 14.125 40.9705 14.0208 41.1137 13.8828C41.257 13.7422 41.3676 13.5677 41.4458 13.3594L42.3364 13.6094C42.2426 13.9115 42.0851 14.1771 41.8637 14.4062C41.6424 14.6328 41.3689 14.8099 41.0434 14.9375C40.7179 15.0625 40.352 15.125 39.9458 15.125ZM44.7544 11.3906V15H43.8325V9H44.7231V9.9375H44.8012C44.9419 9.63281 45.1554 9.38802 45.4419 9.20313C45.7283 9.01563 46.0981 8.92188 46.5512 8.92188C46.9575 8.92188 47.313 9.00521 47.6176 9.17187C47.9223 9.33594 48.1593 9.58594 48.3286 9.92187C48.4979 10.2552 48.5825 10.6771 48.5825 11.1875V15H47.6606V11.25C47.6606 10.7786 47.5382 10.4115 47.2934 10.1484C47.0486 9.88281 46.7127 9.75 46.2856 9.75C45.9913 9.75 45.7283 9.8138 45.4966 9.94141C45.2674 10.069 45.0864 10.2552 44.9536 10.5C44.8208 10.7448 44.7544 11.0417 44.7544 11.3906ZM53.4858 15V7H54.4077V9.95312H54.4858C54.5535 9.84896 54.6473 9.71615 54.7671 9.55469C54.8895 9.39062 55.0639 9.24479 55.2905 9.11719C55.5197 8.98698 55.8296 8.92188 56.2202 8.92188C56.7254 8.92188 57.1707 9.04818 57.5561 9.30078C57.9415 9.55339 58.2423 9.91146 58.4585 10.375C58.6746 10.8385 58.7827 11.3854 58.7827 12.0156C58.7827 12.651 58.6746 13.2018 58.4585 13.668C58.2423 14.1315 57.9428 14.4909 57.56 14.7461C57.1772 14.9987 56.7358 15.125 56.2358 15.125C55.8504 15.125 55.5418 15.0612 55.31 14.9336C55.0783 14.8034 54.8999 14.6562 54.7749 14.4922C54.6499 14.3255 54.5535 14.1875 54.4858 14.0781H54.3764V15H53.4858ZM54.3921 12C54.3921 12.4531 54.4585 12.8529 54.5913 13.1992C54.7241 13.543 54.9181 13.8125 55.1733 14.0078C55.4285 14.2005 55.741 14.2969 56.1108 14.2969C56.4962 14.2969 56.8178 14.1953 57.0757 13.9922C57.3361 13.7865 57.5314 13.5104 57.6616 13.1641C57.7944 12.8151 57.8608 12.4271 57.8608 12C57.8608 11.5781 57.7957 11.1979 57.6655 10.8594C57.5379 10.5182 57.3439 10.2487 57.0835 10.0508C56.8257 9.85026 56.5014 9.75 56.1108 9.75C55.7358 9.75 55.4207 9.84505 55.1655 10.0352C54.9103 10.2227 54.7176 10.4857 54.5874 10.8242C54.4572 11.1602 54.3921 11.5521 54.3921 12ZM62.6303 15.125C62.0887 15.125 61.6134 14.9961 61.2046 14.7383C60.7983 14.4805 60.4806 14.1198 60.2514 13.6562C60.0249 13.1927 59.9116 12.651 59.9116 12.0312C59.9116 11.4062 60.0249 10.8607 60.2514 10.3945C60.4806 9.92839 60.7983 9.56641 61.2046 9.30859C61.6134 9.05078 62.0887 8.92188 62.6303 8.92188C63.172 8.92188 63.646 9.05078 64.0522 9.30859C64.4611 9.56641 64.7788 9.92839 65.0053 10.3945C65.2345 10.8607 65.3491 11.4062 65.3491 12.0312C65.3491 12.651 65.2345 13.1927 65.0053 13.6562C64.7788 14.1198 64.4611 14.4805 64.0522 14.7383C63.646 14.9961 63.172 15.125 62.6303 15.125ZM62.6303 14.2969C63.0418 14.2969 63.3803 14.1914 63.646 13.9805C63.9116 13.7695 64.1082 13.4922 64.2358 13.1484C64.3634 12.8047 64.4272 12.4323 64.4272 12.0312C64.4272 11.6302 64.3634 11.2565 64.2358 10.9102C64.1082 10.5638 63.9116 10.2839 63.646 10.0703C63.3803 9.85677 63.0418 9.75 62.6303 9.75C62.2189 9.75 61.8803 9.85677 61.6147 10.0703C61.3491 10.2839 61.1525 10.5638 61.0249 10.9102C60.8973 11.2565 60.8335 11.6302 60.8335 12.0312C60.8335 12.4323 60.8973 12.8047 61.0249 13.1484C61.1525 13.4922 61.3491 13.7695 61.6147 13.9805C61.8803 14.1914 62.2189 14.2969 62.6303 14.2969ZM68.5219 15.1406C68.1417 15.1406 67.7967 15.069 67.4868 14.9258C67.1769 14.7799 66.9308 14.5703 66.7485 14.2969C66.5662 14.0208 66.4751 13.6875 66.4751 13.2969C66.4751 12.9531 66.5428 12.6745 66.6782 12.4609C66.8136 12.2448 66.9946 12.0755 67.2212 11.9531C67.4477 11.8307 67.6977 11.7396 67.9712 11.6797C68.2472 11.6172 68.5245 11.5677 68.8032 11.5313C69.1678 11.4844 69.4633 11.4492 69.6899 11.4258C69.9191 11.3997 70.0857 11.3568 70.1899 11.2969C70.2967 11.237 70.3501 11.1328 70.3501 10.9844V10.9531C70.3501 10.5677 70.2446 10.2682 70.0337 10.0547C69.8253 9.84115 69.5089 9.73437 69.0844 9.73437C68.6443 9.73437 68.2993 9.83073 68.0493 10.0234C67.7993 10.2161 67.6235 10.4219 67.5219 10.6406L66.6469 10.3281C66.8032 9.96354 67.0115 9.67969 67.2719 9.47656C67.535 9.27083 67.8214 9.1276 68.1313 9.04687C68.4438 8.96354 68.7511 8.92188 69.0532 8.92188C69.2459 8.92188 69.4673 8.94531 69.7173 8.99219C69.9699 9.03646 70.2133 9.12891 70.4477 9.26953C70.6847 9.41016 70.8813 9.6224 71.0376 9.90625C71.1938 10.1901 71.2719 10.5703 71.2719 11.0469V15H70.3501V14.1875H70.3032C70.2407 14.3177 70.1365 14.457 69.9907 14.6055C69.8449 14.7539 69.6508 14.8802 69.4087 14.9844C69.1665 15.0885 68.8709 15.1406 68.5219 15.1406ZM68.6626 14.3125C69.0272 14.3125 69.3344 14.2409 69.5844 14.0977C69.837 13.9544 70.0272 13.7695 70.1548 13.543C70.285 13.3164 70.3501 13.0781 70.3501 12.8281V11.9844C70.311 12.0312 70.2251 12.0742 70.0923 12.1133C69.962 12.1497 69.811 12.1823 69.6391 12.2109C69.4699 12.237 69.3045 12.2604 69.143 12.2812C68.9842 12.2995 68.8553 12.3151 68.7563 12.3281C68.5167 12.3594 68.2928 12.4102 68.0844 12.4805C67.8787 12.5482 67.712 12.651 67.5844 12.7891C67.4594 12.9245 67.3969 13.1094 67.3969 13.3437C67.3969 13.6641 67.5154 13.9062 67.7524 14.0703C67.992 14.2318 68.2954 14.3125 68.6626 14.3125ZM72.9546 15V9H73.8452V9.90625H73.9077C74.0171 9.60938 74.215 9.36849 74.5014 9.18359C74.7879 8.9987 75.1108 8.90625 75.4702 8.90625C75.5379 8.90625 75.6225 8.90755 75.7241 8.91016C75.8257 8.91276 75.9025 8.91667 75.9546 8.92188V9.85937C75.9233 9.85156 75.8517 9.83984 75.7397 9.82422C75.6303 9.80599 75.5145 9.79687 75.3921 9.79687C75.1004 9.79687 74.84 9.85807 74.6108 9.98047C74.3842 10.1003 74.2046 10.2669 74.0717 10.4805C73.9415 10.6914 73.8764 10.9323 73.8764 11.2031V15H72.9546ZM79.1303 15.125C78.6303 15.125 78.1889 14.9987 77.8061 14.7461C77.4233 14.4909 77.1238 14.1315 76.9077 13.668C76.6915 13.2018 76.5835 12.651 76.5835 12.0156C76.5835 11.3854 76.6915 10.8385 76.9077 10.375C77.1238 9.91146 77.4246 9.55339 77.81 9.30078C78.1954 9.04818 78.6408 8.92188 79.146 8.92188C79.5366 8.92188 79.8452 8.98698 80.0717 9.11719C80.3009 9.24479 80.4754 9.39062 80.5952 9.55469C80.7176 9.71615 80.8126 9.84896 80.8803 9.95312H80.9585V7H81.8803V15H80.9897V14.0781H80.8803C80.8126 14.1875 80.7163 14.3255 80.5913 14.4922C80.4663 14.6562 80.2879 14.8034 80.0561 14.9336C79.8244 15.0612 79.5158 15.125 79.1303 15.125ZM79.2553 14.2969C79.6251 14.2969 79.9376 14.2005 80.1928 14.0078C80.448 13.8125 80.6421 13.543 80.7749 13.1992C80.9077 12.8529 80.9741 12.4531 80.9741 12C80.9741 11.5521 80.909 11.1602 80.7788 10.8242C80.6486 10.4857 80.4559 10.2227 80.2007 10.0352C79.9454 9.84505 79.6303 9.75 79.2553 9.75C78.8647 9.75 78.5392 9.85026 78.2788 10.0508C78.021 10.2487 77.827 10.5182 77.6967 10.8594C77.5691 11.1979 77.5053 11.5781 77.5053 12C77.5053 12.4271 77.5704 12.8151 77.7007 13.1641C77.8335 13.5104 78.0288 13.7865 78.2866 13.9922C78.547 14.1953 78.8699 14.2969 79.2553 14.2969Z" fill="white"/>
<defs>
<linearGradient id="paint0_linear_822_20334" x1="39.1474" y1="21" x2="39.1474" y2="-1.07949e-06" gradientUnits="userSpaceOnUse">
<stop stop-color="#161619"/>
<stop offset="1" stop-color="#28282B"/>
</linearGradient>
</defs>
</svg>
