<svg viewBox="0 0 2281 2231" xmlns="http://www.w3.org/2000/svg" fill-rule="evenodd" clip-rule="evenodd" stroke-linejoin="round" stroke-miterlimit="2"><path d="M88.218 1112.4c0-586.645 475.567-1062.263 1062.292-1062.263 586.73 0 1062.34 475.618 1062.34 1062.263 0 586.65-475.61 1062.3-1062.34 1062.3-586.725 0-1062.292-475.65-1062.292-1062.3z" fill="rgb(204,204,204)" fill-rule="nonzero"/><path d="M522.143 885.98v274.465h-196.84l193.63-274.465h3.21zm0 406.614v182.976h144.42v-182.976h99.49v-132.15h-99.49V684.934H530.702L205.487 1145.76v146.833h316.656z" fill="rgb(150,150,150)" fill-rule="nonzero"/><path d="M1786.143 885.98v274.465h-196.84l193.63-274.465h3.21zm0 406.614v182.976h144.42v-182.976h99.49v-132.15h-99.49V684.934h-135.862l-325.214 460.828v146.833h316.656z" fill="rgb(150,150,150)" fill-rule="nonzero"/><path d="M620.163 1628.223c-18.806 18.815-49.306 18.807-68.13 0l68.13-68.112c18.806 18.798 18.806 49.306 0 68.112z" fill="white" fill-rule="nonzero"/><path d="M552.034 1560.11c18.823-18.822 49.323-18.822 68.129 0l-68.13 68.113c-18.814-18.806-18.814-49.306 0-68.112z" fill="white" fill-rule="nonzero"/><path d="M978.143 1202.118c30.682 30.57 64.912 55.45 101.342 74.63l-394.502 394.5c-48.59 48.579-127.38 48.579-175.962 0h-.008l43.018-43.03c18.823 18.81 49.314 18.82 68.129 0 18.806-18.79 18.806-49.31 0-68.11l357.983-357.99z" fill="rgb(117,117,117)" fill-rule="nonzero"/><path d="M903.171 1101.118c19.19 36.11 43.996 70.02 74.41 100.44l.56.56-357.981 357.98c-18.806-18.82-49.306-18.82-68.13 0-18.814 18.81-18.814 49.32 0 68.12l-43.017 43.03c-48.607-48.61-48.582-127.39 0-175.97l394.158-394.16z" fill="rgb(95,95,95)" fill-rule="nonzero"/><g><path d="M972.43 1206.715c-167.785-167.784-167.784-440.225.002-608.01 167.78-167.78 440.225-167.786 608.01-.002L972.43 1206.715z" fill="rgb(48,48,48)"/><path d="M1580.441 598.703c167.786 167.786 167.78 440.232 0 608.012-167.787 167.787-440.226 167.786-608.011 0l608.011-608.012z" fill="rgb(95,95,95)"/><circle cx="1459.4" cy="775.079" r="472.968" fill="white" transform="scale(.64263) rotate(-45 2482.856 453.915)"/></g></svg>