<?xml version="1.0" encoding="UTF-8" standalone="no"?>
<!DOCTYPE svg PUBLIC "-//W3C//DTD SVG 1.1//EN" "http://www.w3.org/Graphics/SVG/1.1/DTD/svg11.dtd">
<svg width="100%" height="100%" viewBox="0 0 2281 2231" version="1.1" xmlns="http://www.w3.org/2000/svg" xmlns:xlink="http://www.w3.org/1999/xlink" xml:space="preserve" xmlns:serif="http://www.serif.com/" style="fill-rule:evenodd;clip-rule:evenodd;stroke-linejoin:round;stroke-miterlimit:2;">
    <path d="M88.218,1112.4C88.218,525.755 563.785,50.137 1150.51,50.137C1737.24,50.137 2212.85,525.755 2212.85,1112.4C2212.85,1699.05 1737.24,2174.7 1150.51,2174.7C563.785,2174.7 88.218,1699.05 88.218,1112.4Z" style="fill:rgb(204,204,204);fill-rule:nonzero;"/>
    <g transform="matrix(89.1486,0,0,94.1235,-33978.9,-71544.5)">
        <path d="M387.006,769.526L387.006,772.442L384.798,772.442L386.97,769.526L387.006,769.526ZM387.006,773.846L387.006,775.79L388.626,775.79L388.626,773.846L389.742,773.846L389.742,772.442L388.626,772.442L388.626,767.39L387.102,767.39L383.454,772.286L383.454,773.846L387.006,773.846Z" style="fill:rgb(150,150,150);fill-rule:nonzero;"/>
    </g>
    <g transform="matrix(89.1486,0,0,94.1235,-32714.9,-71544.5)">
        <path d="M387.006,769.526L387.006,772.442L384.798,772.442L386.97,769.526L387.006,769.526ZM387.006,773.846L387.006,775.79L388.626,775.79L388.626,773.846L389.742,773.846L389.742,772.442L388.626,772.442L388.626,767.39L387.102,767.39L383.454,772.286L383.454,773.846L387.006,773.846Z" style="fill:rgb(150,150,150);fill-rule:nonzero;"/>
    </g>
    <g transform="matrix(0.832874,0,0,0.832874,93.8449,225.372)">
        <g transform="matrix(-1,0,0,1,2308.3,0)">
            <g>
                <path d="M1676.37,1684.35C1698.95,1706.94 1735.57,1706.93 1758.17,1684.35L1676.37,1602.57C1653.79,1625.14 1653.79,1661.77 1676.37,1684.35Z" style="fill:white;fill-rule:nonzero;"/>
                <path d="M1758.17,1602.57C1735.57,1579.97 1698.95,1579.97 1676.37,1602.57L1758.17,1684.35C1780.76,1661.77 1780.76,1625.15 1758.17,1602.57Z" style="fill:white;fill-rule:nonzero;"/>
                <g transform="matrix(-1.20066,6.66501e-17,6.66501e-17,1.20066,2420.98,-270.596)">
                    <path d="M978.148,1202.12C1008.83,1232.69 1043.06,1257.57 1079.49,1276.75L684.987,1671.25C636.397,1719.83 557.607,1719.83 509.025,1671.25L509.017,1671.25L552.035,1628.22C570.858,1647.03 601.349,1647.04 620.164,1628.22C638.97,1609.43 638.97,1578.91 620.164,1560.11L978.148,1202.12Z" style="fill:rgb(117,117,117);fill-rule:nonzero;"/>
                </g>
                <g transform="matrix(-1.20066,6.66501e-17,6.66501e-17,1.20066,2420.98,-270.596)">
                    <path d="M903.176,1101.12C922.365,1137.23 947.172,1171.14 977.586,1201.56L978.146,1202.12L620.164,1560.1C601.358,1541.28 570.858,1541.28 552.035,1560.1C533.22,1578.91 533.22,1609.42 552.035,1628.22L509.017,1671.25C460.41,1622.64 460.435,1543.86 509.017,1495.28L903.176,1101.12Z" style="fill:rgb(95,95,95);fill-rule:nonzero;"/>
                </g>
            </g>
        </g>
        <g transform="matrix(0.771736,-0.771736,0.771736,0.771736,-269.18,1284.8)">
            <g transform="matrix(1,0,0,1,-59.5563,13.7432)">
                <path d="M986.429,775.079C986.429,514.041 1198.36,302.111 1459.4,302.111C1720.43,302.111 1932.37,514.041 1932.37,775.079L986.429,775.079Z" style="fill:rgb(48,48,48);"/>
            </g>
            <g transform="matrix(0.916255,0,0,0.916255,116.838,63.77)">
                <path d="M1916.47,791.321C1916.47,1076.22 1685.16,1307.52 1400.27,1307.52C1115.37,1307.52 884.071,1076.22 884.071,791.321L1916.47,791.321Z" style="fill:rgb(95,95,95);"/>
            </g>
            <g transform="matrix(0.706968,0,0,0.706968,368.094,240.866)">
                <circle cx="1459.4" cy="775.079" r="472.968" style="fill:white;"/>
            </g>
        </g>
    </g>
</svg>
