<svg clip-rule="evenodd" fill-rule="evenodd" stroke-linejoin="round" stroke-miterlimit="2" viewBox="0 0 2281 2231" xmlns="http://www.w3.org/2000/svg"><g fill-rule="nonzero"><path d="m88.218 1112.4c0-586.645 475.567-1062.263 1062.292-1062.263 586.73 0 1062.34 475.618 1062.34 1062.263 0 586.65-475.61 1062.3-1062.34 1062.3-586.725 0-1062.292-475.65-1062.292-1062.3z" fill="#ccc"/><path d="m1676.37 1684.35c22.58 22.59 59.2 22.58 81.8 0l-81.8-81.78c-22.58 22.57-22.58 59.2 0 81.78z" fill="#fff"/><path d="m1758.17 1602.57c-22.6-22.6-59.22-22.6-81.8 0l81.8 81.78c22.59-22.58 22.59-59.2 0-81.78z" fill="#fff"/><path d="m1676.37 1684.35c-22.58-22.57-22.58-59.21 0-81.78l-827.466-827.487-71.083 71.067c-17.246 17.256-45.211 17.256-62.443.017l-232.35-232.346c-1.589-1.595-2.973-3.301-4.263-5.052-47.203 120.354-25.098 258.778 68.055 351.933 91.774 91.758 240.66 127.778 367.136 90.718l684.584 684.59c58.34 58.33 152.94 58.33 211.27 0h.01l-51.65-51.66c-22.6 22.58-59.21 22.59-81.8 0z" fill="#303030"/><path d="m682.584 404.937c1.754 1.297 3.459 2.703 5.034 4.289l232.353 232.334c17.231 17.247 17.262 45.212 0 62.45l-71.067 71.069 827.466 827.481c22.58-22.6 59.2-22.6 81.8 0 22.59 22.58 22.59 59.21 0 81.79l51.65 51.66c58.36-58.36 58.33-152.95 0-211.28l-684.59-684.588c37.06-126.5 1.06-275.367-90.72-367.145-93.149-93.137-231.575-115.256-351.926-68.06z" fill="#5f5f5f"/><path d="m1208.34 1139.17 486.61-486.606c.12-.102.19-.215.3-.318.41-.387.86-.698 1.27-1.113l47.92-33.073 74.68-74.69c7.55-7.545 7.55-19.815-.01-27.367l-34.21-34.222-616.98 616.959z" fill="#969696"/><path d="m1784.9 481.785-34.23-34.223c-7.57-7.569-19.81-7.569-27.39 0l-74.69 74.675-30.66 46.245c-1.34.986-2.61 2.038-3.83 3.235l-486.61 486.603 40.43 40.43z" fill="#fff"/><path d="m1284.37 1215.22-76.03-76.05-40.42-40.42-137.07 137.06-470.671 470.68 52.828 52.8c27.814 27.84 70.8 31.32 102.415 10.44 2.271-1.48 4.468-3.1 6.602-4.84 2.138-1.75 4.202-3.6 6.189-5.6l442.957-442.97c2.59-9.46 7.23-18.48 13.93-26.36l-5.87-5.84c22.22.15 44.47-8.22 61.4-25.16z" fill="#434343"/><path d="m1127.49 1058.32-76.04-76.017-43.73 43.737c-16.946 16.95-25.318 39.19-25.152 61.38l-5.849-5.83c-7.884 6.71-16.907 11.32-26.375 13.91l-442.958 442.96c-1.991 1.99-3.875 4.06-5.597 6.19-1.736 2.14-3.353 4.33-4.839 6.59-20.883 31.64-17.395 74.6 10.436 102.43l52.795 52.82 470.669-470.68 137.07-137.07z" fill="#757575"/></g></svg>