<?xml version="1.0" encoding="utf-8"?>
<svg width="2280.701px" height="2230.577px" viewBox="0 0 2280.701 2230.577" version="1.1" xmlns="http://www.w3.org/2000/svg" xmlns:xlink="http://www.w3.org/1999/xlink" xml:space="preserve" xmlns:serif="http://www.serif.com/" style="fill-rule:evenodd;clip-rule:evenodd;stroke-linejoin:round;stroke-miterlimit:2;">
    <path d="M88.218,1112.4C88.218,525.755 563.785,50.137 1150.51,50.137C1737.24,50.137 2212.85,525.755 2212.85,1112.4C2212.85,1699.05 1737.24,2174.7 1150.51,2174.7C563.785,2174.7 88.218,1699.05 88.218,1112.4Z" style="fill:rgb(100,186,203);fill-rule:nonzero;"/>
    <g>
        <g>
            <g>
                <path d="M1676.37,1684.35C1698.95,1706.94 1735.57,1706.93 1758.17,1684.35L1676.37,1602.57C1653.79,1625.14 1653.79,1661.77 1676.37,1684.35Z" style="fill:white;fill-rule:nonzero;"/>
                <path d="M1758.17,1602.57C1735.57,1579.97 1698.95,1579.97 1676.37,1602.57L1758.17,1684.35C1780.76,1661.77 1780.76,1625.15 1758.17,1602.57Z" style="fill:white;fill-rule:nonzero;"/>
                <path d="M1676.37,1684.35C1653.79,1661.78 1653.79,1625.14 1676.37,1602.57L848.904,775.083L777.821,846.15C760.575,863.406 732.61,863.406 715.378,846.167L483.028,613.821C481.439,612.226 480.055,610.52 478.765,608.769C431.562,729.123 453.667,867.547 546.82,960.702C638.594,1052.46 787.48,1088.48 913.956,1051.42L1598.54,1736.01C1656.88,1794.34 1751.48,1794.34 1809.81,1736.01L1809.82,1736.01L1758.17,1684.35C1735.57,1706.93 1698.96,1706.94 1676.37,1684.35Z" style="fill:rgb(30,65,73);fill-rule:nonzero;"/>
                <path d="M682.584,404.937C684.338,406.234 686.043,407.64 687.618,409.226L919.971,641.56C937.202,658.807 937.233,686.772 919.971,704.01L848.904,775.079L1676.37,1602.56C1698.95,1579.96 1735.57,1579.96 1758.17,1602.56C1780.76,1625.14 1780.76,1661.77 1758.17,1684.35L1809.82,1736.01C1868.18,1677.65 1868.15,1583.06 1809.82,1524.73L1125.23,840.142C1162.29,713.642 1126.29,564.775 1034.51,472.997C941.361,379.86 802.935,357.741 682.584,404.937Z" style="fill:rgb(45,119,134);fill-rule:nonzero;"/>
            </g>
            <g>
                <path d="M1208.34,1139.17L1694.95,652.564C1695.07,652.462 1695.14,652.349 1695.25,652.246C1695.66,651.859 1696.11,651.548 1696.52,651.133L1744.44,618.06L1819.12,543.37C1826.67,535.825 1826.67,523.555 1819.11,516.003L1784.9,481.781L1167.92,1098.74L1208.34,1139.17Z" style="fill:rgb(200,231,237);fill-rule:nonzero;"/>
                <path d="M1784.9,481.785L1750.67,447.562C1743.1,439.993 1730.86,439.993 1723.28,447.562L1648.59,522.237L1617.93,568.482C1616.59,569.468 1615.32,570.52 1614.1,571.717L1127.49,1058.32L1167.92,1098.75L1784.9,481.785Z" style="fill:white;fill-rule:nonzero;"/>
                <path d="M1284.37,1215.22L1208.34,1139.17L1167.92,1098.75L1030.85,1235.81L560.179,1706.49L613.007,1759.29C640.821,1787.13 683.807,1790.61 715.422,1769.73C717.693,1768.25 719.89,1766.63 722.024,1764.89C724.162,1763.14 726.226,1761.29 728.213,1759.29L1171.17,1316.32C1173.76,1306.86 1178.4,1297.84 1185.1,1289.96L1179.23,1284.12C1201.45,1284.27 1223.7,1275.9 1240.63,1258.96L1284.37,1215.22Z" style="fill:rgb(45,119,134);fill-rule:nonzero;"/>
                <path d="M1127.49,1058.32L1051.45,982.303L1007.72,1026.04C990.774,1042.99 982.402,1065.23 982.568,1087.42L976.719,1081.59C968.835,1088.3 959.812,1092.91 950.344,1095.5L507.386,1538.46C505.395,1540.45 503.511,1542.52 501.789,1544.65C500.053,1546.79 498.436,1548.98 496.95,1551.24C476.067,1582.88 479.555,1625.84 507.386,1653.67L560.181,1706.49L1030.85,1235.81L1167.92,1098.74L1127.49,1058.32Z" style="fill:rgb(30,65,73);fill-rule:nonzero;"/>
            </g>
        </g>
    </g>
</svg>
