<?xml version="1.0" encoding="UTF-8" standalone="no"?>
<!DOCTYPE svg PUBLIC "-//W3C//DTD SVG 1.1//EN" "http://www.w3.org/Graphics/SVG/1.1/DTD/svg11.dtd">
<svg width="100%" height="100%" viewBox="0 0 433 433" version="1.1" xmlns="http://www.w3.org/2000/svg" xmlns:xlink="http://www.w3.org/1999/xlink" xml:space="preserve" xmlns:serif="http://www.serif.com/" style="fill-rule:evenodd;clip-rule:evenodd;stroke-linejoin:round;stroke-miterlimit:2;">
    <g transform="matrix(1,0,0,1,-1012.4,-1526.18)">
        <g transform="matrix(0.950567,0,0,0.950567,484.77,-716.436)">
            <circle cx="782.826" cy="2587" r="227.759" style="fill:rgb(45,45,45);"/>
        </g>
        <g transform="matrix(0.195594,0,0,0.195594,639.807,1351.4)">
            <path d="M3011.81,1573.16C2925.49,1487.1 2823.74,1430.66 2716.53,1430.66C2606.01,1430.66 2495.7,1511.73 2407.5,1642.16C2246.97,1879.55 2142.71,2274.79 2142.71,2274.79C2128.11,2330.74 2161.68,2388.03 2217.63,2402.63C2273.59,2417.24 2330.87,2383.67 2345.47,2327.71L2345.47,2327.71C2345.47,2327.71 2414,2064.46 2525.15,1853.92C2558.93,1789.92 2596.34,1730.8 2637.84,1688.14C2663.21,1662.06 2687.54,1640.21 2716.53,1640.21C2780.25,1640.21 2834.65,1684.14 2882.82,1740.26C2784.53,1901.08 2729.87,2078.2 2729.87,2125.98C2729.87,2308.7 2869.95,2401.9 3011.81,2401.9C3153.68,2401.9 3293.75,2308.7 3293.75,2125.98C3293.75,2078.2 3239.09,1901.08 3140.81,1740.26C3188.97,1684.14 3243.37,1640.21 3307.09,1640.21C3336.09,1640.21 3360.41,1662.06 3385.78,1688.14C3427.28,1730.8 3464.69,1789.92 3498.47,1853.92C3609.63,2064.46 3678.15,2327.71 3678.15,2327.71C3692.75,2383.67 3750.04,2417.24 3805.99,2402.63C3861.94,2388.03 3895.51,2330.74 3880.91,2274.79C3880.91,2274.79 3765.21,1883.34 3616.12,1642.13C3533.77,1508.89 3417.61,1430.66 3307.09,1430.66C3199.88,1430.66 3098.13,1487.1 3011.81,1573.16ZM3011.81,1938.04C2985.77,1990.03 2965.75,2039.55 2952.81,2078.68C2946.12,2098.94 2940.45,2123.89 2939.48,2128.23C2940.65,2172.16 2977.08,2192.35 3011.81,2192.35C3046.54,2192.35 3082.97,2172.16 3084.14,2128.23C3083.18,2123.89 3077.51,2098.94 3070.81,2078.68C3057.87,2039.55 3037.85,1990.03 3011.81,1938.04Z" style="fill:rgb(64,169,191);"/>
        </g>
    </g>
</svg>
