<?xml version="1.0" encoding="UTF-8" standalone="no"?>
<!DOCTYPE svg PUBLIC "-//W3C//DTD SVG 1.1//EN" "http://www.w3.org/Graphics/SVG/1.1/DTD/svg11.dtd">
<svg width="100%" height="100%" viewBox="0 0 415 433" version="1.1" xmlns="http://www.w3.org/2000/svg" xmlns:xlink="http://www.w3.org/1999/xlink" xml:space="preserve" xmlns:serif="http://www.serif.com/" style="fill-rule:evenodd;clip-rule:evenodd;stroke-linejoin:round;stroke-miterlimit:2;">
    <g transform="matrix(1,0,0,1,-359.513,-1579.41)">
        <g transform="matrix(0.246072,0,0,0.246072,120.082,1871.03)">
            <g transform="matrix(5.86188,0,0,5.53569,-1965.41,-12474.3)">
                <path d="M644.159,2039.35C638.415,2039.35 632.792,2041.1 627.966,2044.4L514.94,2121.67C506.421,2127.49 501.276,2137.49 501.276,2148.23L501.276,2248.34C501.276,2259.08 506.421,2269.08 514.94,2274.9L627.966,2352.17C632.792,2355.47 638.415,2357.22 644.159,2357.22L645.851,2357.22C651.596,2357.22 657.219,2355.47 662.045,2352.17L775.071,2274.9C783.589,2269.08 788.735,2259.08 788.735,2248.34L788.735,2148.23C788.735,2137.49 783.589,2127.49 775.071,2121.67L662.045,2044.4C657.219,2041.1 651.596,2039.35 645.851,2039.35L644.159,2039.35Z" style="fill:rgb(30,65,73);"/>
            </g>
            <g transform="matrix(1.55476,0,0,1.55476,-120.2,-2621.89)">
                <path d="M1024.33,1255.89L922.459,1314.71L922.459,1589.17L1024.33,1647.99L1024.33,1255.89Z" style="fill:rgb(45,119,134);"/>
            </g>
            <g transform="matrix(1.55476,0,0,1.55476,-244.405,-2731.48)">
                <path d="M1002.35,1640.06L1121.19,1708.67L1019.32,1767.49L1002.35,1757.68L1002.35,1640.06Z" style="fill:rgb(100,186,203);"/>
            </g>
            <g transform="matrix(-1.55476,0,0,1.55476,3574.73,-2913.73)">
                <path d="M1080.55,1678.86L1437.09,1884.71L1335.22,1943.52L1080.55,1796.49L1080.55,1678.86Z" style="fill:rgb(200,231,237);"/>
            </g>
            <g transform="matrix(-1.55476,0,0,1.55476,3487.06,-2959.99)">
                <path d="M1024.16,1590.99L922.29,1590.99L922.29,1767.43L1024.16,1826.24L1024.16,1590.99Z" style="fill:rgb(45,119,134);"/>
            </g>
            <g transform="matrix(1.55476,0,0,1.55476,10.5611,-2910.38)">
                <path d="M1110.01,1696.31L1347.7,1833.54L1245.83,1892.35L1110.01,1813.94L1110.01,1696.31Z" style="fill:rgb(45,119,134);"/>
            </g>
            <g transform="matrix(-1.55476,0,0,1.55476,3825.86,-2728.66)">
                <path d="M1072.3,1677.98L1225.09,1765.68L1123.22,1824.49L1072.3,1795.61L1072.3,1677.98Z" style="fill:rgb(100,186,203);"/>
            </g>
            <g transform="matrix(1.55476,0,0,1.55476,48.1136,-2862)">
                <path d="M1102.83,1439.74L983.983,1527.96L1289.59,1527.96L1170.74,1439.74L1102.83,1439.74Z" style="fill:rgb(100,186,203);"/>
            </g>
            <g transform="matrix(1.55476,0,0,1.55476,111.726,-2962.15)">
                <path d="M1044.94,1516.76L943.068,1592.38L943.068,1788.42L1044.94,1847.24L1044.94,1516.76Z" style="fill:rgb(203,232,238);"/>
            </g>
            <g transform="matrix(-1.57307,0,0,1.55476,3778.03,-2726.68)">
                <path d="M1029.41,1323.82L928.731,1382.64L928.731,1735.52L1029.41,1794.33L1029.41,1323.82Z" style="fill:rgb(56,126,140);"/>
            </g>
        </g>
    </g>
</svg>
