<svg viewBox="0 0 512 491" xmlns="http://www.w3.org/2000/svg" fill-rule="evenodd" clip-rule="evenodd" stroke-linejoin="round" stroke-miterlimit="2"><g transform="matrix(0 1.70561 -1.61071 0 3796.79 -854.983)"><path d="M644.159 2039.35c-5.744 0-11.367 1.75-16.193 5.05l-113.026 77.27c-8.519 5.82-13.664 15.82-13.664 26.56v100.11c0 10.74 5.145 20.74 13.664 26.56l113.026 77.27c4.826 3.3 10.449 5.05 16.193 5.05h1.692c5.745 0 11.368-1.75 16.194-5.05l113.026-77.27c8.518-5.82 13.664-15.82 13.664-26.56v-100.11c0-10.74-5.146-20.74-13.664-26.56l-113.026-77.27c-4.826-3.3-10.449-5.05-16.194-5.05h-1.692z" fill="rgb(30,65,73)"/><clipPath id="a"><path d="M644.159 2039.35c-5.744 0-11.367 1.75-16.193 5.05l-113.026 77.27c-8.519 5.82-13.664 15.82-13.664 26.56v100.11c0 10.74 5.145 20.74 13.664 26.56l113.026 77.27c4.826 3.3 10.449 5.05 16.193 5.05h1.692c5.745 0 11.368-1.75 16.194-5.05l113.026-77.27c8.518-5.82 13.664-15.82 13.664-26.56v-100.11c0-10.74-5.146-20.74-13.664-26.56l-113.026-77.27c-4.826-3.3-10.449-5.05-16.194-5.05h-1.692z"/></clipPath><g clip-path="url(#a)"><path d="M574.988 1873.277l-73.713 45.07v210.301l73.713 45.07v-300.441z" fill="rgb(45,119,134)"/><path d="M501.265 2113.626l85.993 52.572-73.713 45.07-12.28-7.517v-90.125z" fill="rgb(100,186,203)"/><path d="M771.554 2053.53l-257.992 157.73 73.713 45.063 184.279-112.66v-90.132z" fill="rgb(200,231,237)"/><path d="M771.542 1963.41h73.713v135.195l-73.713 45.062V1963.41z" fill="rgb(45,119,134)"/><path d="M697.831 2068.564l171.992 105.15-73.713 45.063-98.279-60.08v-90.133z" fill="rgb(45,119,134)"/><path d="M697.841 1905.47l-73.714 57.943v150.213l73.714 45.07V1905.47z" fill="rgb(203,232,238)"/></g></g></svg>